<svg version="1.1" id="Layer_1" xmlns="http://www.w3.org/2000/svg" xmlns:xlink="http://www.w3.org/1999/xlink" x="0px" y="0px"
	 width="100%" viewBox="0 0 1920 960" enable-background="new 0 0 1920 960" xml:space="preserve">
<path fill="#020202" opacity="1.000000" stroke="none" 
	d="
M1920.000000,961.000000 
	C1280.421143,961.000000 640.842285,961.000000 1.000000,961.000000 
	C1.000000,641.631775 1.000000,322.263519 1.467852,2.449418 
	C638.164185,2.002596 1274.392578,2.001659 1910.621094,2.000270 
	C1919.998413,2.000250 1919.999756,1.997629 1919.999756,11.656782 
	C1920.000000,328.104523 1920.000000,644.552246 1920.000000,961.000000 
M1002.068542,424.052979 
	C1002.068542,424.052979 1002.052917,424.100464 1002.501526,424.123352 
	C1003.049866,423.786438 1003.598206,423.449493 1004.787292,423.114136 
	C1015.013916,420.986969 1025.149780,418.026855 1035.485474,416.900421 
	C1059.378296,414.296570 1082.207397,418.393311 1103.434814,431.011749 
	C1104.484253,433.201508 1105.449585,435.437561 1106.619019,437.561157 
	C1107.194824,438.606720 1108.100952,440.197845 1108.938354,440.250244 
	C1113.431519,440.531555 1116.192261,442.482086 1116.354614,447.150726 
	C1123.709473,445.863068 1128.426392,449.632599 1128.630615,456.757507 
	C1128.739624,460.566071 1131.225830,460.842377 1134.046631,461.724915 
	C1137.063232,465.755707 1139.764282,470.088379 1143.219116,473.699921 
	C1145.174438,475.743774 1148.367310,476.603516 1151.076172,478.495636 
	C1151.312988,478.969696 1151.549927,479.443756 1151.786865,479.917816 
	C1152.259644,479.508636 1152.732544,479.099457 1153.205322,478.690277 
	C1152.469238,478.461060 1151.733154,478.231873 1150.997681,477.208588 
	C1151.513794,473.366852 1159.867065,466.131805 1163.990356,464.855194 
	C1167.094849,463.893982 1169.825684,461.650757 1172.629761,459.834290 
	C1173.670654,459.160034 1174.347900,457.441986 1175.358887,457.285706 
	C1180.467773,456.496124 1180.039062,453.622955 1178.370972,449.399475 
	C1178.194214,448.704010 1178.017578,448.008545 1177.968262,446.543488 
	C1179.591064,440.659698 1175.860474,436.937683 1172.002563,433.976440 
	C1168.634399,431.391235 1167.032837,428.859650 1168.051392,424.731415 
	C1168.273315,423.831940 1168.083862,422.830933 1168.083862,421.077972 
	C1165.716431,422.247437 1163.893677,423.147827 1162.321411,423.924561 
	C1152.483154,414.147675 1144.166626,402.988647 1130.662842,398.009216 
	C1131.504150,395.462372 1132.245361,393.218750 1133.240479,390.206238 
	C1130.242065,391.106171 1128.181763,392.257202 1126.144531,392.217529 
	C1122.633911,392.149200 1119.095093,391.529724 1115.654419,390.757111 
	C1114.062012,390.399475 1112.758301,388.896942 1111.174438,388.332642 
	C1107.456421,387.008179 1103.586426,386.096344 1099.913818,384.668091 
	C1098.758789,384.218903 1097.420776,382.763397 1097.218750,381.587738 
	C1096.126221,375.228699 1090.258667,372.149536 1086.099731,371.717377 
	C1076.171631,370.685852 1065.994385,372.123413 1055.914185,372.454254 
	C1051.476807,372.599915 1047.030640,372.478790 1042.588379,372.478790 
	C1042.583008,371.955475 1042.577515,371.432190 1042.572144,370.908875 
	C1046.509766,370.908875 1050.447510,370.908875 1054.385132,370.908875 
	C1054.373047,370.293640 1054.361084,369.678436 1054.348999,369.063202 
	C1049.822144,369.063202 1045.063721,368.176483 1040.826172,369.283661 
	C1035.310181,370.724915 1029.552246,370.553925 1024.219971,374.626709 
	C1020.013550,377.839508 1013.875183,382.095367 1006.844604,377.644501 
	C1004.358093,376.070282 999.707703,375.458740 999.423340,381.424042 
	C999.375427,382.428802 997.260681,383.847961 995.882141,384.187469 
	C989.968994,385.643738 983.974121,386.768005 978.000000,388.000458 
	C978.000000,388.000458 977.987793,387.991241 977.822693,387.248138 
	C975.939209,382.373779 974.055786,377.499451 972.017578,372.224640 
	C969.078491,373.203369 968.500000,371.718994 968.466858,367.826996 
	C968.441223,364.800110 966.171997,361.669678 964.512634,358.810028 
	C962.393250,355.157745 959.648743,351.860931 957.619141,348.166199 
	C956.034119,345.280670 955.128357,342.021942 953.570374,338.031525 
	C953.685425,337.969360 955.242554,337.472046 956.289246,336.451263 
	C957.088013,335.672272 957.481934,334.240845 957.533997,333.076294 
	C957.549866,332.720856 955.795410,331.876892 954.918396,331.960083 
	C950.574829,332.372070 946.207214,329.497406 945.197083,325.299713 
	C944.774353,323.542999 944.402466,321.774017 944.000000,320.000000 
	C944.000000,320.000000 943.989075,319.992645 943.862793,319.275848 
	C942.181152,314.356201 938.125183,309.818420 941.707031,304.023163 
	C942.040588,303.483490 940.577820,301.198212 939.464294,300.523071 
	C936.557861,298.760773 932.032043,298.212097 930.636108,295.763397 
	C928.635010,292.252930 925.936401,287.979645 928.408936,283.143677 
	C928.938721,282.107391 928.456909,279.313721 927.939758,279.173065 
	C922.415527,277.670349 922.566040,273.038879 921.796692,268.850769 
	C921.178833,265.487427 919.215088,264.224457 915.730408,264.538177 
	C911.271362,264.939667 906.753845,265.168335 902.294861,264.905457 
	C899.784363,264.757477 896.132446,262.049042 895.078491,262.945099 
	C890.708313,266.660339 881.831116,261.704346 880.438904,270.663574 
	C880.321838,271.417053 879.174072,272.130280 878.362915,272.632629 
	C876.234863,273.950653 874.028259,275.141724 871.768311,276.431671 
	C871.103577,275.637634 870.153687,274.502960 868.722595,272.793518 
	C868.144592,274.488922 867.490234,275.416382 867.611633,276.227722 
	C868.080383,279.359283 869.766418,282.628021 869.244751,285.530396 
	C867.467957,295.416107 865.714111,305.591309 855.023682,310.702484 
	C854.930542,310.121674 854.962463,309.139252 854.596802,308.338409 
	C854.136902,307.331268 853.351746,306.472717 852.706970,305.550018 
	C852.364868,306.656586 851.617920,307.818298 851.759644,308.858917 
	C852.124451,311.537689 853.428711,314.182404 853.334595,316.803986 
	C853.235229,319.573334 855.310120,323.316132 850.959351,324.768066 
	C850.880737,324.745636 850.802124,324.723206 850.723511,324.700775 
	C850.813110,324.801910 850.902649,324.903046 850.982300,325.828949 
	C850.681824,330.941559 849.274353,335.491333 845.439392,339.258881 
	C843.776794,340.892212 843.109314,343.490143 841.687195,345.427917 
	C839.563660,348.321533 838.973206,353.380493 833.345642,351.620789 
	C833.047058,359.654724 835.841980,368.421844 826.879150,373.707245 
	C826.637207,373.849945 826.561401,374.275879 826.410339,374.570892 
	C824.116943,379.050140 821.633667,383.445587 819.603821,388.041229 
	C818.429199,390.700378 817.660583,393.640503 817.289795,396.528687 
	C816.764893,400.617798 816.286621,404.317780 811.147766,405.140381 
	C810.325500,405.272034 809.030334,407.201080 809.205994,408.035706 
	C810.259155,413.040649 807.542664,416.059509 804.196472,418.969055 
	C803.370117,419.687500 802.382751,420.985046 802.491699,421.893768 
	C803.348022,429.032745 798.467163,434.132904 796.068298,440.047913 
	C794.111938,444.871643 792.989807,450.609222 787.150635,452.977386 
	C786.488220,453.246033 785.852478,454.671692 785.927795,455.494629 
	C786.491638,461.651703 782.875305,466.382721 780.641602,471.577057 
	C778.527588,476.492920 777.177917,482.238281 769.962769,481.947327 
	C769.962769,481.947327 770.002563,481.998138 770.010132,482.871307 
	C770.226990,488.055756 771.589355,493.318298 768.645996,498.274231 
	C768.292786,498.868896 768.998169,500.092285 769.088379,501.660583 
	C768.470398,502.778473 767.852478,503.896393 766.548584,505.213501 
	C765.650940,505.911102 764.429321,506.425903 763.913818,507.339203 
	C762.062927,510.618835 760.239380,513.621338 755.697998,513.313049 
	C755.142395,513.275330 753.815491,515.231445 753.936951,516.113342 
	C754.710938,521.734009 754.476440,526.983459 752.171692,532.439209 
	C750.584473,536.196350 749.484985,537.853699 744.683533,534.105530 
	C745.681458,537.020020 746.504700,538.470642 746.594971,539.965576 
	C746.679443,541.364441 746.252380,543.903992 745.594727,544.063599 
	C739.979065,545.426331 739.914490,549.492615 739.609985,554.089966 
	C739.319641,558.472961 737.920349,562.782593 737.000244,567.668396 
	C738.324341,568.230896 739.642578,569.264832 740.973511,569.281616 
	C751.952271,569.419312 762.936157,569.229187 773.912170,569.451904 
	C777.632935,569.527344 779.573853,568.142883 781.179077,564.863037 
	C796.937195,532.664001 812.863098,500.547028 828.687805,468.380432 
	C837.122498,451.235443 845.452271,434.038910 854.214661,416.314026 
	C868.804077,387.022919 883.393494,357.731812 898.331299,327.741211 
	C899.778748,329.541687 900.660217,330.317322 901.146729,331.290405 
	C911.904480,352.804260 922.639038,374.329773 933.301453,395.890961 
	C934.153503,397.614014 934.553467,399.592163 934.921082,401.498474 
	C935.001343,401.914642 934.042786,402.531189 933.562622,403.055481 
	C933.188782,402.633209 932.427063,401.951080 932.506470,401.832458 
	C932.911926,401.227234 933.820740,400.235107 934.032104,400.348694 
	C934.973083,400.854309 936.011353,401.536957 936.514221,402.435516 
	C938.297668,405.622894 939.743835,409.001678 941.573059,412.160095 
	C943.153931,414.889740 942.572754,416.520844 940.457703,418.976074 
	C932.035461,428.752777 924.060486,438.914764 915.604553,449.263672 
	C912.195618,455.884186 908.786682,462.504700 905.102600,469.344208 
	C904.960144,469.556152 904.934631,469.781342 904.560059,470.809875 
	C904.390808,471.394257 904.221558,471.978607 904.006531,472.503784 
	C904.006531,472.503784 904.048462,472.529785 903.630249,473.234924 
	C902.864807,475.480499 902.099304,477.726074 900.988098,480.630676 
	C889.218933,519.290161 889.479675,557.823181 903.336121,595.839905 
	C911.983948,619.566345 926.263062,639.653931 946.083130,655.918457 
	C946.083130,655.918457 946.335999,655.974609 946.453186,656.297485 
	C946.591248,656.499878 946.780823,656.623413 947.387756,657.162781 
	C947.889832,657.501953 948.391907,657.841125 949.262878,658.687866 
	C950.109680,659.291443 950.956543,659.895081 952.188293,661.016907 
	C962.906311,667.320740 973.152405,674.686768 984.442688,679.702209 
	C1006.382935,689.448669 1029.875854,692.248962 1053.751465,691.483093 
	C1086.748291,690.424744 1117.007446,681.017700 1143.307129,660.632568 
	C1149.666504,655.703308 1155.089478,649.565674 1161.358032,643.583252 
	C1161.908813,643.050842 1162.459717,642.518433 1163.500610,641.877075 
	C1163.679565,641.604858 1163.858643,641.332642 1164.555786,640.643188 
	C1170.853516,631.713135 1177.260864,622.856384 1183.328735,613.772827 
	C1184.225342,612.430786 1184.334595,608.972168 1183.424072,608.258362 
	C1173.793457,600.708191 1163.882080,593.516113 1153.904785,586.119141 
	C1148.019897,594.926208 1142.428955,603.293518 1136.263550,612.013733 
	C1127.724609,619.798584 1119.940308,628.683289 1110.503540,635.159607 
	C1083.417480,653.747864 1053.141479,657.863037 1021.406738,651.163025 
	C1011.474304,649.065979 1001.950806,645.031799 991.745667,641.317627 
	C990.869385,640.865845 989.993103,640.414001 988.751709,639.399658 
	C985.132874,636.755798 981.444397,634.201477 977.907654,631.452026 
	C964.876648,621.321655 953.836975,609.137207 946.638184,594.436218 
	C936.469360,573.669861 932.615051,551.307373 933.825439,528.063721 
	C935.199524,501.673676 943.115845,477.813721 959.814880,457.109802 
	C960.379700,456.409546 961.212891,455.925690 962.195496,455.114105 
	C963.159302,456.739227 963.980957,457.952850 964.634338,459.251251 
	C982.366394,494.487640 1000.118225,529.714233 1017.733887,565.008789 
	C1019.276917,568.100403 1021.070129,569.506042 1024.594604,569.446716 
	C1035.919556,569.256042 1047.249268,569.357361 1058.576904,569.292480 
	C1059.795898,569.285522 1061.012939,568.927795 1062.677002,568.661316 
	C1061.765991,566.763489 1061.136230,565.428101 1060.486694,564.102478 
	C1051.404663,545.565918 1042.380371,527.000854 1033.220215,508.503021 
	C1022.810791,487.482819 1012.279419,466.522980 1001.784180,445.270813 
	C1001.784180,445.270813 1001.582703,445.096252 1001.444214,444.410767 
	C1000.107971,441.782257 998.736267,439.171051 997.442505,436.521820 
	C994.235840,429.955811 994.250183,429.948822 1000.238342,425.357880 
	C1000.238342,425.357880 1000.281433,425.359283 1000.862183,425.277802 
	C1001.264038,424.889252 1001.665894,424.500671 1002.068542,424.052979 
M928.358398,274.790741 
	C928.289673,274.540985 928.221008,274.291260 928.152283,274.041504 
	C927.950684,274.189911 927.749146,274.338287 927.547607,274.486694 
	C927.740967,274.647888 927.934265,274.809082 928.358398,274.790741 
M825.475037,371.506195 
	C825.475037,371.506195 825.513489,371.493103 825.475037,371.506195 
z"/>
<path fill="#0E0E0E" opacity="1.000000" stroke="none" 
	d="
M1920.500000,961.000000 
	C1920.000000,644.552246 1920.000000,328.104523 1919.999756,11.656782 
	C1919.999756,1.997629 1919.998413,2.000250 1910.621094,2.000270 
	C1274.392578,2.001659 638.164185,2.002596 1.467852,2.001786 
	C1.166667,1.666667 1.315919,1.056198 1.502793,1.044456 
	C2.830883,0.961004 4.166666,1.000000 5.499999,1.000000 
	C643.999878,1.000000 1282.499756,1.000000 1920.999756,1.000000 
	C1921.000000,321.000000 1921.000000,641.000000 1920.500000,961.000000 
z"/>
<path fill="#775322" opacity="1.000000" stroke="none" 
	d="
M992.240112,641.884277 
	C1001.950806,645.031799 1011.474304,649.065979 1021.406738,651.163025 
	C1053.141479,657.863037 1083.417480,653.747864 1110.503540,635.159607 
	C1119.940308,628.683289 1127.724609,619.798584 1136.493042,612.199829 
	C1129.414185,624.359558 1119.017944,633.136536 1107.415894,640.655151 
	C1104.213623,642.730347 1100.960449,644.726807 1097.730591,646.759399 
	C1097.899536,647.403381 1098.068359,648.047302 1098.237305,648.691284 
	C1106.187134,647.964294 1114.176758,653.422180 1122.189209,646.942078 
	C1123.925171,645.538086 1126.838623,645.487732 1129.253174,645.058044 
	C1131.199707,644.711670 1133.266846,644.979614 1135.184814,644.548950 
	C1143.120239,642.766846 1143.106934,642.707336 1145.430908,649.932922 
	C1150.741455,649.751221 1153.602295,646.857422 1154.140137,642.156311 
	C1156.645386,642.829285 1158.794189,643.406494 1160.942993,643.983704 
	C1155.089478,649.565674 1149.666504,655.703308 1143.307129,660.632568 
	C1117.007446,681.017700 1086.748291,690.424744 1053.751465,691.483093 
	C1029.875854,692.248962 1006.382935,689.448669 984.442688,679.702209 
	C973.152405,674.686768 962.906311,667.320740 952.188232,660.432251 
	C954.293884,656.313660 957.229736,658.428284 960.064148,658.298584 
	C965.821228,658.035034 972.454712,663.428711 977.408020,656.085999 
	C977.956604,655.272888 979.824524,655.145203 981.102295,655.070435 
	C983.925171,654.905151 986.816650,655.318542 989.581116,654.876282 
	C994.616943,654.070435 1000.297302,654.754150 1003.693115,650.374207 
	C999.705750,647.418457 995.972961,644.651367 992.240112,641.884277 
z"/>
<path fill="#C0832D" opacity="1.000000" stroke="none" 
	d="
M1177.840942,447.313049 
	C1178.017578,448.008545 1178.194214,448.704010 1178.070312,449.890106 
	C1167.178955,457.908386 1156.588257,465.436035 1146.072876,472.910126 
	C1142.448486,467.712128 1139.337891,463.251068 1136.130371,458.462830 
	C1127.317261,446.305450 1116.453369,436.994904 1103.367554,430.291046 
	C1082.207397,418.393311 1059.378296,414.296570 1035.485474,416.900421 
	C1025.149780,418.026855 1015.013916,420.986969 1004.184204,423.182709 
	C1003.071655,423.534332 1002.562256,423.817383 1002.052917,424.100464 
	C1002.052917,424.100464 1002.068542,424.052979 1001.802917,424.171906 
	C1001.118652,424.646973 1000.700073,425.003143 1000.281433,425.359283 
	C1000.281433,425.359283 1000.238342,425.357880 999.885742,425.382782 
	C997.552368,427.002991 993.624451,429.384369 993.900635,430.068542 
	C995.998413,435.264648 998.918762,440.128693 1001.582703,445.096252 
	C1001.582703,445.096252 1001.784180,445.270813 1001.733032,445.635986 
	C1001.642273,446.318970 1001.614746,446.637878 1001.334351,447.028687 
	C998.929565,450.707153 996.446350,450.867188 992.244812,449.821289 
	C986.583923,448.411987 979.930603,447.443207 976.264709,454.560608 
	C976.126343,454.829407 975.413452,454.802307 974.776306,454.960815 
	C974.516174,454.247070 974.334961,453.639038 974.077698,453.065094 
	C973.394104,451.539825 972.677673,450.029205 971.974365,448.512756 
	C970.881653,449.568878 969.404358,450.435608 968.772583,451.718689 
	C967.236267,454.838318 965.605835,452.711456 963.944641,452.106262 
	C963.929077,452.107544 963.901855,452.092377 963.821777,451.821655 
	C963.189026,451.114502 962.636292,450.678101 962.083496,450.241638 
	C961.762817,451.174347 961.442139,452.107025 960.889954,453.253174 
	C959.738220,454.319946 958.817993,455.173187 957.544678,456.041840 
	C955.843567,457.406311 954.495605,458.755402 953.122559,460.348450 
	C953.097534,460.592377 953.011902,461.075256 952.633789,461.049866 
	C949.704163,461.042175 948.250000,460.238525 948.433228,457.217896 
	C948.486816,456.333984 946.903076,454.683563 945.883362,454.515381 
	C941.054016,453.718811 936.132690,453.484039 931.298950,452.707947 
	C928.196594,452.209839 926.498535,453.115417 926.048889,456.224365 
	C925.511108,459.942230 923.044434,461.173615 919.678528,460.950073 
	C917.395447,460.798462 915.134521,460.313843 912.940369,459.664917 
	C913.329895,458.551910 913.642639,457.752136 914.356079,456.957458 
	C916.509094,455.863190 918.754333,455.092499 919.801392,453.522614 
	C920.308044,452.763031 918.565186,450.502960 918.024170,448.637878 
	C921.292053,444.948822 922.372314,439.504120 928.064636,438.700806 
	C928.396790,438.653961 928.785767,437.594116 928.807800,436.993164 
	C928.957703,432.914764 931.726074,432.762756 935.200806,432.943359 
	C945.749329,432.214783 955.834534,431.425507 965.927307,430.748962 
	C968.807861,430.555878 971.730835,430.898743 974.597534,430.618774 
	C977.875305,430.298553 981.140015,428.978607 984.360046,429.134277 
	C989.303528,429.373169 992.700867,427.032623 996.514160,424.454956 
	C999.926697,422.148193 1004.198242,421.065674 1008.161377,419.639435 
	C1010.131592,418.930359 1012.261292,418.666382 1014.317078,418.193176 
	C1022.665405,416.271606 1030.943359,413.896057 1039.386719,412.590637 
	C1044.562622,411.790405 1049.992554,412.599823 1055.306641,412.747223 
	C1057.199341,412.799744 1059.168945,412.734741 1060.963135,413.230957 
	C1070.698730,415.923584 1080.382202,418.804565 1090.111694,421.520386 
	C1090.967896,421.759399 1092.034546,421.315857 1092.988892,421.118835 
	C1096.329468,420.429199 1099.663452,419.708740 1102.942139,419.314758 
	C1101.984009,423.422455 1105.259521,423.921143 1107.474976,424.905579 
	C1107.785278,425.043427 1109.898438,422.371216 1110.311646,420.775665 
	C1111.224609,417.250671 1113.134521,416.123260 1116.273926,418.099243 
	C1118.644775,419.591553 1120.845337,421.363434 1123.067505,423.081085 
	C1125.794556,425.189056 1135.138672,423.364594 1136.044678,420.148010 
	C1136.476562,418.614227 1135.339233,416.452911 1134.469849,414.810303 
	C1133.977051,413.879395 1132.587769,413.422943 1131.602295,412.752838 
	C1131.692383,412.357849 1131.782471,411.962891 1131.872559,411.567902 
	C1133.904663,411.389130 1135.936890,411.210327 1138.035400,411.375000 
	C1139.721436,412.825256 1141.341187,413.932007 1142.966064,415.273621 
	C1142.971436,415.508453 1142.979004,415.979065 1142.793213,415.995667 
	C1142.355469,416.194702 1142.103394,416.377167 1141.851440,416.559631 
	C1142.237061,416.378265 1142.622559,416.196869 1143.226318,416.095245 
	C1143.899414,416.143890 1144.354126,416.112762 1144.808960,416.081665 
	C1144.218994,415.708038 1143.629028,415.334442 1142.889404,414.673279 
	C1141.170410,413.248230 1139.601318,412.110687 1137.929199,410.645447 
	C1130.958740,405.714874 1124.080933,401.127167 1117.228882,396.501556 
	C1114.508057,394.664856 1111.844238,392.744110 1109.517822,390.897797 
	C1128.223877,398.202454 1144.311646,408.959900 1157.841553,423.232819 
	C1165.004395,430.789093 1171.205566,439.256805 1177.840942,447.313049 
z"/>
<path fill="#0E0E0E" opacity="1.000000" stroke="none" 
	d="
M1177.904541,446.928284 
	C1171.205566,439.256805 1165.004395,430.789093 1157.841553,423.232819 
	C1144.311646,408.959900 1128.223877,398.202454 1109.510254,390.917725 
	C1109.139160,390.901459 1109.139526,390.866974 1108.902710,390.602417 
	C1107.099121,389.805328 1105.532227,389.272766 1103.911133,388.679321 
	C1103.856812,388.618469 1103.733765,388.725586 1103.429199,388.479126 
	C1100.193237,387.356628 1097.261841,386.480560 1094.291504,385.637665 
	C1094.252563,385.670837 1094.319824,385.748016 1094.172119,385.532349 
	C1093.689331,385.263214 1093.354126,385.209717 1092.703247,384.998108 
	C1090.809937,384.525269 1089.232544,384.210541 1087.468750,383.634033 
	C1086.869019,383.304504 1086.455566,383.236725 1085.660889,383.030762 
	C1082.373535,382.556366 1079.467163,382.220093 1076.354736,381.597778 
	C1075.461182,381.271576 1074.774048,381.231415 1073.727295,381.039337 
	C1072.125732,380.886841 1070.883667,380.886230 1069.480469,380.586304 
	C1068.880127,380.216797 1068.440918,380.146545 1067.585938,379.973145 
	C1063.773804,379.652863 1060.377563,379.435699 1056.529541,379.090271 
	C1049.731201,379.045380 1043.384521,379.128754 1036.615723,379.182434 
	C1032.453369,379.539490 1028.713135,379.926270 1024.659912,380.255890 
	C1024.006714,380.420288 1023.666565,380.641785 1022.930359,380.783508 
	C1006.382935,382.237030 991.227112,387.450867 976.519409,393.812256 
	C972.151184,385.704407 967.936035,378.249176 964.073975,370.615326 
	C959.606812,361.785461 955.450500,352.798340 951.147827,343.901489 
	C951.136353,343.923523 951.155823,343.878632 951.121216,343.520935 
	C947.465210,336.039642 943.843750,328.915985 940.206238,321.823059 
	C940.190186,321.853760 940.258362,321.866394 940.218994,321.554962 
	C939.822388,320.746124 939.465088,320.248718 939.076538,319.487640 
	C938.786377,318.770477 938.527527,318.316986 938.246765,317.560944 
	C937.867310,316.785858 937.509705,316.313324 937.122925,315.918152 
	C937.093750,315.995483 937.173767,315.849152 937.154663,315.520508 
	C936.495911,314.068054 935.856262,312.944244 935.197998,311.849274 
	C935.179321,311.878113 935.244751,311.898987 935.214966,311.593079 
	C934.849548,310.792267 934.513855,310.297394 934.144165,309.839661 
	C934.110291,309.876770 934.206360,309.846832 934.157104,309.492004 
	C932.160339,305.209625 930.212891,301.282104 928.272095,297.238098 
	C928.278748,297.121643 928.075867,297.006378 928.054932,296.670654 
	C927.153931,294.815002 926.273926,293.295013 925.310181,291.893311 
	C925.226318,292.011627 925.375671,291.767517 925.375732,291.466736 
	C925.063599,290.679413 924.751343,290.192871 924.443054,289.678101 
	C924.447021,289.649872 924.391418,289.636902 924.353271,289.296051 
	C923.638489,287.764130 922.961853,286.573029 922.260681,285.172821 
	C922.008545,284.622681 921.780945,284.281647 921.481323,283.607056 
	C921.078979,282.974731 920.748596,282.675995 920.499146,282.407593 
	C920.580078,282.437927 920.639526,282.275665 920.621582,281.953125 
	C920.147766,280.921570 919.691895,280.212585 919.221985,279.265594 
	C918.978027,278.618652 918.748047,278.209717 918.447998,277.470276 
	C917.712158,276.004425 917.046387,274.869080 916.377808,273.714539 
	C916.375061,273.695312 916.342529,273.674164 916.345581,273.452576 
	C916.265137,272.913940 916.066345,272.708374 915.764038,272.476868 
	C915.775757,272.339508 915.556702,272.171997 915.419312,271.769897 
	C913.547729,271.100555 911.818359,270.643524 910.078308,270.598480 
	C902.021912,270.389801 893.962524,270.295532 885.992676,269.927490 
	C886.015137,269.142731 885.949158,268.590759 885.883301,268.038818 
	C884.969238,268.769073 884.055176,269.499359 883.059326,270.454132 
	C882.977661,270.678619 882.808228,271.125366 882.585083,271.233551 
	C882.150818,271.783752 881.939697,272.225739 881.502441,272.815552 
	C881.199402,273.306396 881.122559,273.649414 880.842163,274.283386 
	C874.516235,287.102570 868.362366,299.615540 862.279480,312.162903 
	C855.112305,326.946716 848.006592,341.760254 840.604736,356.771790 
	C840.111084,357.613281 839.887024,358.243958 839.450562,359.060425 
	C839.069092,359.777924 838.899841,360.309662 838.462280,361.026978 
	C837.716248,362.403992 837.238586,363.595428 836.820435,364.819214 
	C836.880005,364.851562 836.748474,364.819275 836.471436,365.033081 
	C833.358765,371.374420 830.523132,377.501953 827.628052,383.647888 
	C827.568665,383.666290 827.602844,383.785889 827.334290,383.988708 
	C824.349976,389.670410 821.590637,395.128235 818.927429,400.632568 
	C813.584290,411.675842 808.293640,422.744537 802.729004,433.990326 
	C794.949829,449.775391 787.422913,465.372833 779.652466,481.130371 
	C779.191162,481.823425 778.973389,482.356384 778.512451,483.133118 
	C775.250488,489.259369 772.231750,495.141815 769.212952,501.024261 
	C768.998169,500.092285 768.292786,498.868896 768.645996,498.274231 
	C771.589355,493.318298 770.226990,488.055756 770.005066,482.435669 
	C770.000000,482.000000 769.998108,482.002655 769.998108,482.002655 
	C777.177917,482.238281 778.527588,476.492920 780.641602,471.577057 
	C782.875305,466.382721 786.491638,461.651703 785.927795,455.494629 
	C785.852478,454.671692 786.488220,453.246033 787.150635,452.977386 
	C792.989807,450.609222 794.111938,444.871643 796.068298,440.047913 
	C798.467163,434.132904 803.348022,429.032745 802.491699,421.893768 
	C802.382751,420.985046 803.370117,419.687500 804.196472,418.969055 
	C807.542664,416.059509 810.259155,413.040649 809.205994,408.035706 
	C809.030334,407.201080 810.325500,405.272034 811.147766,405.140381 
	C816.286621,404.317780 816.764893,400.617798 817.289795,396.528687 
	C817.660583,393.640503 818.429199,390.700378 819.603821,388.041229 
	C821.633667,383.445587 824.116943,379.050140 826.410339,374.570892 
	C826.561401,374.275879 826.637207,373.849945 826.879150,373.707245 
	C835.841980,368.421844 833.047058,359.654724 833.345642,351.620789 
	C838.973206,353.380493 839.563660,348.321533 841.687195,345.427917 
	C843.109314,343.490143 843.776794,340.892212 845.439392,339.258881 
	C849.274353,335.491333 850.681824,330.941559 850.991211,325.414276 
	C851.000183,324.999603 851.007935,324.991272 851.007935,324.991272 
	C855.310120,323.316132 853.235229,319.573334 853.334595,316.803986 
	C853.428711,314.182404 852.124451,311.537689 851.759644,308.858917 
	C851.617920,307.818298 852.364868,306.656586 852.706970,305.550018 
	C853.351746,306.472717 854.136902,307.331268 854.596802,308.338409 
	C854.962463,309.139252 854.930542,310.121674 855.023682,310.702484 
	C865.714111,305.591309 867.467957,295.416107 869.244751,285.530396 
	C869.766418,282.628021 868.080383,279.359283 867.611633,276.227722 
	C867.490234,275.416382 868.144592,274.488922 868.722595,272.793518 
	C870.153687,274.502960 871.103577,275.637634 871.768311,276.431671 
	C874.028259,275.141724 876.234863,273.950653 878.362915,272.632629 
	C879.174072,272.130280 880.321838,271.417053 880.438904,270.663574 
	C881.831116,261.704346 890.708313,266.660339 895.078491,262.945099 
	C896.132446,262.049042 899.784363,264.757477 902.294861,264.905457 
	C906.753845,265.168335 911.271362,264.939667 915.730408,264.538177 
	C919.215088,264.224457 921.178833,265.487427 921.796692,268.850769 
	C922.566040,273.038879 922.415527,277.670349 927.939758,279.173065 
	C928.456909,279.313721 928.938721,282.107391 928.408936,283.143677 
	C925.936401,287.979645 928.635010,292.252930 930.636108,295.763397 
	C932.032043,298.212097 936.557861,298.760773 939.464294,300.523071 
	C940.577820,301.198212 942.040588,303.483490 941.707031,304.023163 
	C938.125183,309.818420 942.181152,314.356201 943.895447,319.653870 
	C943.928101,320.031860 944.007446,320.010620 944.007446,320.010620 
	C944.402466,321.774017 944.774353,323.542999 945.197083,325.299713 
	C946.207214,329.497406 950.574829,332.372070 954.918396,331.960083 
	C955.795410,331.876892 957.549866,332.720856 957.533997,333.076294 
	C957.481934,334.240845 957.088013,335.672272 956.289246,336.451263 
	C955.242554,337.472046 953.685425,337.969360 953.570374,338.031525 
	C955.128357,342.021942 956.034119,345.280670 957.619141,348.166199 
	C959.648743,351.860931 962.393250,355.157745 964.512634,358.810028 
	C966.171997,361.669678 968.441223,364.800110 968.466858,367.826996 
	C968.500000,371.718994 969.078491,373.203369 972.017578,372.224640 
	C974.055786,377.499451 975.939209,382.373779 977.874268,387.640137 
	C977.925842,388.032166 978.009033,388.013275 978.009033,388.013275 
	C983.974121,386.768005 989.968994,385.643738 995.882141,384.187469 
	C997.260681,383.847961 999.375427,382.428802 999.423340,381.424042 
	C999.707703,375.458740 1004.358093,376.070282 1006.844604,377.644501 
	C1013.875183,382.095367 1020.013550,377.839508 1024.219971,374.626709 
	C1029.552246,370.553925 1035.310181,370.724915 1040.826172,369.283661 
	C1045.063721,368.176483 1049.822144,369.063202 1054.348999,369.063202 
	C1054.361084,369.678436 1054.373047,370.293640 1054.385132,370.908875 
	C1050.447510,370.908875 1046.509766,370.908875 1042.572144,370.908875 
	C1042.577515,371.432190 1042.583008,371.955475 1042.588379,372.478790 
	C1047.030640,372.478790 1051.476807,372.599915 1055.914185,372.454254 
	C1065.994385,372.123413 1076.171631,370.685852 1086.099731,371.717377 
	C1090.258667,372.149536 1096.126221,375.228699 1097.218750,381.587738 
	C1097.420776,382.763397 1098.758789,384.218903 1099.913818,384.668091 
	C1103.586426,386.096344 1107.456421,387.008179 1111.174438,388.332642 
	C1112.758301,388.896942 1114.062012,390.399475 1115.654419,390.757111 
	C1119.095093,391.529724 1122.633911,392.149200 1126.144531,392.217529 
	C1128.181763,392.257202 1130.242065,391.106171 1133.240479,390.206238 
	C1132.245361,393.218750 1131.504150,395.462372 1130.662842,398.009216 
	C1144.166626,402.988647 1152.483154,414.147675 1162.321411,423.924561 
	C1163.893677,423.147827 1165.716431,422.247437 1168.083862,421.077972 
	C1168.083862,422.830933 1168.273315,423.831940 1168.051392,424.731415 
	C1167.032837,428.859650 1168.634399,431.391235 1172.002563,433.976440 
	C1175.860474,436.937683 1179.591064,440.659698 1177.904541,446.928284 
M1085.004028,375.013977 
	C1080.580444,374.552368 1076.157471,373.735992 1071.733154,373.728668 
	C1067.280151,373.721252 1062.834351,374.697083 1058.369507,374.913513 
	C1053.730591,375.138428 1049.072144,374.925781 1044.423218,374.986511 
	C1040.239014,375.041168 1036.056274,375.207031 1031.872803,375.323853 
	C1031.918457,375.776398 1031.964111,376.228912 1032.009644,376.681458 
	C1043.732056,376.681458 1055.454468,376.652985 1067.176636,376.712616 
	C1068.903564,376.721405 1071.225586,376.518707 1072.249878,377.490936 
	C1076.445190,381.472961 1081.325317,379.494080 1085.936523,379.539825 
	C1086.752075,379.547943 1087.581543,378.183868 1088.404663,377.453491 
	C1087.548462,376.661255 1086.692139,375.869019 1085.004028,375.013977 
M889.092590,268.538513 
	C890.371704,268.896210 891.650818,269.253906 892.929932,269.611603 
	C892.979919,268.947327 893.029907,268.283020 893.079834,267.618744 
	C891.818298,267.748901 890.556702,267.879028 889.092590,268.538513 
M949.504761,335.523926 
	C949.504761,335.523926 949.492249,335.484741 949.504761,335.523926 
z"/>
<path fill="#A5702C" opacity="1.000000" stroke="none" 
	d="
M957.897766,456.026459 
	C958.817993,455.173187 959.738220,454.319946 961.174561,453.184113 
	C962.427673,452.631836 963.164795,452.362122 963.901855,452.092407 
	C963.901855,452.092377 963.929077,452.107544 963.978027,452.474243 
	C969.036499,463.243195 974.046021,473.645416 979.165466,484.306244 
	C979.831116,485.039917 980.386902,485.515015 981.031555,486.321564 
	C981.767212,488.111969 982.413940,489.570923 983.132935,491.288452 
	C983.473450,492.007812 983.741760,492.468567 984.276245,493.068604 
	C985.036743,493.815643 985.531006,494.423401 986.034363,495.414368 
	C990.394104,504.869781 994.685913,513.970886 999.124939,522.999634 
	C1000.852905,526.514160 1002.830994,530.005920 1008.601746,527.216187 
	C1007.110901,529.266113 1006.304993,530.374268 1005.140503,531.975403 
	C1008.209167,531.653809 1010.857483,530.611023 1012.934021,531.297607 
	C1020.044067,533.648621 1025.973389,533.235352 1030.218384,526.245850 
	C1030.516235,525.755432 1031.299805,525.374329 1031.907104,525.286987 
	C1036.614014,524.609375 1036.663574,521.300415 1035.187744,518.268982 
	C1031.034912,509.738892 1026.441895,501.423157 1021.977112,492.667847 
	C1020.013611,487.823975 1018.072021,483.344940 1016.181824,478.844360 
	C1011.653748,468.062897 1003.481018,458.948547 1001.599304,446.957855 
	C1001.614746,446.637878 1001.642273,446.318970 1001.741516,445.768982 
	C1012.279419,466.522980 1022.810791,487.482819 1033.220215,508.503021 
	C1042.380371,527.000854 1051.404663,545.565918 1060.486694,564.102478 
	C1061.136230,565.428101 1061.765991,566.763489 1062.677002,568.661316 
	C1061.012939,568.927795 1059.795898,569.285522 1058.576904,569.292480 
	C1047.249268,569.357361 1035.919556,569.256042 1024.594604,569.446716 
	C1021.070129,569.506042 1019.276917,568.100403 1017.733887,565.008789 
	C1000.118225,529.714233 982.366394,494.487640 964.634338,459.251251 
	C963.980957,457.952850 963.159302,456.739227 962.195496,455.114105 
	C961.212891,455.925690 960.379700,456.409546 959.814880,457.109802 
	C943.115845,477.813721 935.199524,501.673676 933.825439,528.063721 
	C932.615051,551.307373 936.469360,573.669861 946.638184,594.436218 
	C953.836975,609.137207 964.876648,621.321655 977.907654,631.452026 
	C981.444397,634.201477 985.132874,636.755798 988.649048,639.722778 
	C984.506836,637.357727 980.170959,635.019897 976.489258,631.908142 
	C968.824829,625.430176 961.506653,618.542480 954.012573,611.454346 
	C953.030457,609.001892 952.259155,606.813904 951.104431,604.851685 
	C944.090576,592.932678 937.236755,580.953186 934.577820,567.134705 
	C933.669922,562.416443 932.848877,557.681458 931.988281,552.638367 
	C931.988647,551.900330 931.988892,551.478088 932.048584,550.926147 
	C932.185181,550.512390 932.148315,550.241150 931.996460,549.515991 
	C932.112366,540.281250 932.177490,531.512329 932.363464,522.745972 
	C932.495728,516.511719 932.791016,510.280853 933.307617,503.853790 
	C935.082642,499.763977 936.563660,495.868835 938.204956,491.709473 
	C938.580017,490.656311 938.794678,489.867371 939.204224,488.789734 
	C943.398254,480.911804 947.431274,473.340027 951.366943,465.717957 
	C952.113281,464.272614 952.473572,462.627960 953.011963,461.075256 
	C953.011902,461.075256 953.097534,460.592377 953.413940,460.229095 
	C955.119507,458.586029 956.508667,457.306244 957.897766,456.026459 
M1034.494995,528.476624 
	C1034.494995,528.476624 1034.506836,528.512756 1034.494995,528.476624 
z"/>
<path fill="#936629" opacity="1.000000" stroke="none" 
	d="
M931.988159,552.954102 
	C932.848877,557.681458 933.669922,562.416443 934.577820,567.134705 
	C937.236755,580.953186 944.090576,592.932678 951.104431,604.851685 
	C952.259155,606.813904 953.030457,609.001892 953.811401,611.787231 
	C949.787537,613.584595 945.970398,614.861572 942.060120,615.707703 
	C939.718140,616.214355 937.065491,616.653015 934.844666,616.048645 
	C931.003418,615.003235 927.663879,614.072327 924.497437,617.623596 
	C923.604797,618.624695 921.530090,618.571838 919.959534,618.659241 
	C919.130676,617.085144 918.339844,615.854248 917.117859,613.952148 
	C915.389465,618.561340 917.526672,618.923828 920.002197,619.406738 
	C920.909119,628.657898 927.518005,634.101685 932.518982,640.425720 
	C936.719238,645.737183 941.470764,650.612549 945.978271,655.680969 
	C926.263062,639.653931 911.983948,619.566345 903.336121,595.839905 
	C889.479675,557.823181 889.218933,519.290161 901.381897,480.320190 
	C901.775696,480.009705 902.214539,480.073639 902.155640,480.480560 
	C900.676453,488.607880 899.256226,496.328247 897.669617,504.382874 
	C896.757019,509.799133 895.456543,514.872742 895.379272,519.964966 
	C895.215820,530.741577 895.397217,541.544983 896.024719,552.303162 
	C896.351196,557.900208 898.458984,558.930603 903.996887,558.348572 
	C906.285645,558.107971 909.256287,557.419067 910.828552,558.506897 
	C917.358154,563.024719 924.051208,557.239502 929.932312,559.984741 
	C930.753845,557.175293 931.370972,555.064697 931.988159,552.954102 
z"/>
<path fill="#A5702C" opacity="1.000000" stroke="none" 
	d="
M769.150635,501.342407 
	C772.231750,495.141815 775.250488,489.259369 778.713684,483.446472 
	C779.227112,484.944550 779.826111,486.630219 779.278259,487.759430 
	C775.944214,494.631470 772.431396,501.421112 768.816406,508.151306 
	C765.629089,514.085510 767.023804,516.579346 773.896484,516.994324 
	C777.512817,517.212708 781.325562,516.975830 784.687500,518.063721 
	C793.537537,520.927368 801.107605,518.777710 805.280151,510.436279 
	C809.518982,501.962524 812.062622,492.644592 818.009521,485.009979 
	C818.004639,485.003510 818.010986,485.007599 818.209106,484.720093 
	C819.275208,481.956543 820.143250,479.480499 821.024902,476.763306 
	C821.038513,476.522095 821.050964,476.039124 821.213135,475.765503 
	C821.614685,474.685852 821.853943,473.879791 822.367859,472.876312 
	C823.889648,471.168549 825.469360,469.825592 826.328125,468.119690 
	C830.673340,459.487732 834.831238,450.761383 839.224365,441.759308 
	C844.074219,433.136902 848.754517,424.823334 853.533508,416.598785 
	C853.632141,416.687805 853.829407,416.865631 853.829407,416.865631 
	C845.452271,434.038910 837.122498,451.235443 828.687805,468.380432 
	C812.863098,500.547028 796.937195,532.664001 781.179077,564.863037 
	C779.573853,568.142883 777.632935,569.527344 773.912170,569.451904 
	C762.936157,569.229187 751.952271,569.419312 740.973511,569.281616 
	C739.642578,569.264832 738.324341,568.230896 737.265869,567.161072 
	C740.376038,560.867065 743.265015,555.101746 746.056458,549.289551 
	C753.139160,534.542358 760.178040,519.774109 767.234497,505.014282 
	C767.852478,503.896393 768.470398,502.778473 769.150635,501.342407 
M765.943970,517.785889 
	C766.002319,517.788879 766.060730,517.791870 765.943970,517.785889 
z"/>
<path fill="#845B25" opacity="1.000000" stroke="none" 
	d="
M1161.150513,643.783447 
	C1158.794189,643.406494 1156.645386,642.829285 1154.140137,642.156311 
	C1153.602295,646.857422 1150.741455,649.751221 1145.430908,649.932922 
	C1143.106934,642.707336 1143.120239,642.766846 1135.184814,644.548950 
	C1133.266846,644.979614 1131.199707,644.711670 1129.253174,645.058044 
	C1126.838623,645.487732 1123.925171,645.538086 1122.189209,646.942078 
	C1114.176758,653.422180 1106.187134,647.964294 1098.237305,648.691284 
	C1098.068359,648.047302 1097.899536,647.403381 1097.730591,646.759399 
	C1100.960449,644.726807 1104.213623,642.730347 1107.415894,640.655151 
	C1119.017944,633.136536 1129.414185,624.359558 1136.780273,612.023438 
	C1142.428955,603.293518 1148.019897,594.926208 1153.904785,586.119141 
	C1163.882080,593.516113 1173.793457,600.708191 1183.424072,608.258362 
	C1184.334595,608.972168 1184.225342,612.430786 1183.328735,613.772827 
	C1177.260864,622.856384 1170.853516,631.713135 1164.107178,640.983887 
	C1163.417114,641.520081 1163.201050,641.740540 1163.010498,641.985962 
	C1162.459717,642.518433 1161.908813,643.050842 1161.150513,643.783447 
M1136.043945,640.036621 
	C1135.862915,639.657288 1135.681885,639.277954 1135.500854,638.898560 
	C1135.213501,639.170105 1134.926270,639.441711 1134.638916,639.713257 
	C1135.011230,639.909668 1135.383545,640.106079 1136.043945,640.036621 
z"/>
<path fill="#845B25" opacity="1.000000" stroke="none" 
	d="
M919.997559,619.002441 
	C921.530090,618.571838 923.604797,618.624695 924.497437,617.623596 
	C927.663879,614.072327 931.003418,615.003235 934.844666,616.048645 
	C937.065491,616.653015 939.718140,616.214355 942.060120,615.707703 
	C945.970398,614.861572 949.787537,613.584595 953.845032,612.156128 
	C961.506653,618.542480 968.824829,625.430176 976.489258,631.908142 
	C980.170959,635.019897 984.506836,637.357727 988.831665,640.004089 
	C989.993103,640.414001 990.869385,640.865845 991.992920,641.600952 
	C995.972961,644.651367 999.705750,647.418457 1003.693115,650.374207 
	C1000.297302,654.754150 994.616943,654.070435 989.581116,654.876282 
	C986.816650,655.318542 983.925171,654.905151 981.102295,655.070435 
	C979.824524,655.145203 977.956604,655.272888 977.408020,656.085999 
	C972.454712,663.428711 965.821228,658.035034 960.064148,658.298584 
	C957.229736,658.428284 954.293884,656.313660 951.995728,660.173096 
	C950.956543,659.895081 950.109680,659.291443 948.947937,658.136475 
	C947.946960,657.104126 947.260864,656.623291 946.510986,656.106323 
	C946.447205,656.070190 946.335999,655.974609 946.335999,655.974609 
	C946.335999,655.974609 946.083130,655.918457 946.030701,655.799683 
	C941.470764,650.612549 936.719238,645.737183 932.518982,640.425720 
	C927.518005,634.101685 920.909119,628.657898 920.000977,619.407837 
	C920.000000,619.000000 919.997559,619.002441 919.997559,619.002441 
z"/>
<path fill="#A5702C" opacity="1.000000" stroke="none" 
	d="
M934.740356,432.925476 
	C931.726074,432.762756 928.957703,432.914764 928.807800,436.993164 
	C928.785767,437.594116 928.396790,438.653961 928.064636,438.700806 
	C922.372314,439.504120 921.292053,444.948822 917.769531,448.676453 
	C916.993530,449.073303 916.655701,449.147186 916.218323,449.149353 
	C916.118835,449.077606 915.919922,448.934143 915.919922,448.934143 
	C924.060486,438.914764 932.035461,428.752777 940.457703,418.976074 
	C942.572754,416.520844 943.153931,414.889740 941.573059,412.160095 
	C939.743835,409.001678 938.297668,405.622894 936.514221,402.435516 
	C936.011353,401.536957 934.973083,400.854309 934.032104,400.348694 
	C933.820740,400.235107 932.911926,401.227234 932.506470,401.832458 
	C932.427063,401.951080 933.188782,402.633209 933.562622,403.055481 
	C934.042786,402.531189 935.001343,401.914642 934.921082,401.498474 
	C934.553467,399.592163 934.153503,397.614014 933.301453,395.890961 
	C922.639038,374.329773 911.904480,352.804260 901.146729,331.290405 
	C900.660217,330.317322 899.778748,329.541687 898.331299,327.741211 
	C883.393494,357.731812 868.804077,387.022919 854.022034,416.589844 
	C853.829407,416.865631 853.632141,416.687805 853.626099,416.238281 
	C854.967407,412.612854 856.268311,409.416199 857.671875,406.265320 
	C860.475708,399.970917 863.335876,393.701569 866.244507,387.153168 
	C866.330933,386.699646 866.345703,386.514832 866.668579,386.197449 
	C868.043152,384.448090 869.109741,382.831329 870.341797,380.896149 
	C872.472351,375.496002 874.437500,370.414246 876.636597,365.180725 
	C877.255798,364.412872 877.640991,363.796783 878.081421,363.145050 
	C878.136719,363.109406 878.177185,362.984253 878.424927,362.879547 
	C879.104004,362.222534 879.535217,361.670197 880.156616,360.808197 
	C882.855469,355.781433 885.646545,351.188385 887.789490,346.310577 
	C889.732117,341.889069 890.968384,337.157257 892.517029,332.534943 
	C892.517944,332.507629 892.516846,332.452942 892.708862,332.242249 
	C893.098938,331.504272 893.296936,330.976990 893.551636,330.438904 
	C893.608215,330.428040 893.714966,330.384338 894.064697,330.268188 
	C895.605408,328.669769 896.796387,327.187469 898.226868,325.635773 
	C898.466370,325.566376 898.939087,325.407654 899.169678,325.707520 
	C902.562073,331.725922 905.723877,337.444397 908.984863,343.463257 
	C910.207275,344.957306 911.330444,346.151001 912.450073,347.741699 
	C914.609375,352.441040 916.772278,356.743408 918.967590,361.026184 
	C919.000000,361.006653 918.932495,361.036499 918.904541,361.414185 
	C920.587952,365.859772 922.299377,369.927704 924.138916,374.321564 
	C930.281067,386.643921 936.131836,398.726562 942.397949,410.589813 
	C944.581116,414.723175 943.995605,417.663300 940.877625,420.782288 
	C938.692566,422.968018 936.877869,425.523926 934.728699,428.052368 
	C934.662720,428.840393 934.765747,429.490540 934.856689,430.489594 
	C934.809875,431.534149 934.775146,432.229828 934.740356,432.925476 
z"/>
<path fill="#0E0E0E" opacity="1.000000" stroke="none" 
	d="
M766.891541,505.113892 
	C760.178040,519.774109 753.139160,534.542358 746.056458,549.289551 
	C743.265015,555.101746 740.376038,560.867065 737.270020,566.889099 
	C737.920349,562.782593 739.319641,558.472961 739.609985,554.089966 
	C739.914490,549.492615 739.979065,545.426331 745.594727,544.063599 
	C746.252380,543.903992 746.679443,541.364441 746.594971,539.965576 
	C746.504700,538.470642 745.681458,537.020020 744.683533,534.105530 
	C749.484985,537.853699 750.584473,536.196350 752.171692,532.439209 
	C754.476440,526.983459 754.710938,521.734009 753.936951,516.113342 
	C753.815491,515.231445 755.142395,513.275330 755.697998,513.313049 
	C760.239380,513.621338 762.062927,510.618835 763.913818,507.339203 
	C764.429321,506.425903 765.650940,505.911102 766.891541,505.113892 
z"/>
<path fill="#0E0E0E" opacity="1.000000" stroke="none" 
	d="
M1136.227417,458.790039 
	C1139.337891,463.251068 1142.448486,467.712128 1146.072876,472.910126 
	C1156.588257,465.436035 1167.178955,457.908386 1178.097656,450.248199 
	C1180.039062,453.622955 1180.467773,456.496124 1175.358887,457.285706 
	C1174.347900,457.441986 1173.670654,459.160034 1172.629761,459.834290 
	C1169.825684,461.650757 1167.094849,463.893982 1163.990356,464.855194 
	C1159.867065,466.131805 1151.513794,473.366852 1150.998779,477.604309 
	C1151.000000,478.000000 1151.002808,477.996613 1151.002808,477.996613 
	C1148.367310,476.603516 1145.174438,475.743774 1143.219116,473.699921 
	C1139.764282,470.088379 1137.063232,465.755707 1134.023315,461.362732 
	C1134.000000,461.000549 1133.995117,461.005676 1134.240234,460.903381 
	C1134.906494,460.285339 1135.327759,459.769562 1135.868530,459.137756 
	C1135.988037,459.021698 1136.227417,458.790039 1136.227417,458.790039 
z"/>
<path fill="#0E0E0E" opacity="1.000000" stroke="none" 
	d="
M1103.401123,430.651398 
	C1116.453369,436.994904 1127.317261,446.305450 1136.130371,458.462830 
	C1136.227417,458.790039 1135.988037,459.021698 1135.626953,459.217957 
	C1134.842285,459.944733 1134.418701,460.475220 1133.995117,461.005676 
	C1133.995117,461.005676 1134.000000,461.000549 1134.002441,460.997894 
	C1131.225830,460.842377 1128.739624,460.566071 1128.630615,456.757507 
	C1128.426392,449.632599 1123.709473,445.863068 1116.354614,447.150726 
	C1116.192261,442.482086 1113.431519,440.531555 1108.938354,440.250244 
	C1108.100952,440.197845 1107.194824,438.606720 1106.619019,437.561157 
	C1105.449585,435.437561 1104.484253,433.201508 1103.401123,430.651398 
z"/>
<path fill="#A5702C" opacity="1.000000" stroke="none" 
	d="
M902.214478,480.073608 
	C902.214539,480.073639 901.775696,480.009705 901.554749,479.990662 
	C902.099304,477.726074 902.864807,475.480499 903.821899,472.889038 
	C904.013489,472.543121 904.052246,472.562958 904.052246,472.562958 
	C904.221558,471.978607 904.390808,471.394257 904.890625,470.364655 
	C905.473206,469.693329 905.525391,469.428589 905.377808,469.125244 
	C908.786682,462.504700 912.195618,455.884186 915.762207,449.098907 
	C915.919922,448.934143 916.118835,449.077606 916.251953,449.444397 
	C915.575195,452.191589 914.765320,454.571991 913.955444,456.952393 
	C913.642639,457.752136 913.329895,458.551910 912.674866,459.864624 
	C910.530884,463.970459 908.753662,467.575897 906.919739,471.152313 
	C905.385742,474.143707 903.785461,477.101135 902.214478,480.073608 
z"/>
<path fill="#A5702C" opacity="1.000000" stroke="none" 
	d="
M1001.513428,444.753510 
	C998.918762,440.128693 995.998413,435.264648 993.900635,430.068542 
	C993.624451,429.384369 997.552368,427.002991 999.887085,425.404297 
	C994.250183,429.948822 994.235840,429.955811 997.442505,436.521820 
	C998.736267,439.171051 1000.107971,441.782257 1001.513428,444.753510 
z"/>
<path fill="#0E0E0E" opacity="1.000000" stroke="none" 
	d="
M1150.998535,478.001343 
	C1151.733154,478.231873 1152.469238,478.461060 1153.205322,478.690277 
	C1152.732544,479.099457 1152.259644,479.508636 1151.786865,479.917816 
	C1151.549927,479.443756 1151.312988,478.969696 1151.039551,478.246124 
	C1151.002808,477.996613 1151.000000,478.000000 1150.998535,478.001343 
z"/>
<path fill="#0E0E0E" opacity="1.000000" stroke="none" 
	d="
M928.243042,274.880493 
	C927.934265,274.809082 927.740967,274.647888 927.547607,274.486694 
	C927.749146,274.338287 927.950684,274.189911 928.152344,274.041504 
	C928.221008,274.291260 928.289673,274.540985 928.243042,274.880493 
z"/>
<path fill="#775322" opacity="1.000000" stroke="none" 
	d="
M946.574829,656.142456 
	C947.260864,656.623291 947.946960,657.104126 948.763489,657.882629 
	C948.391907,657.841125 947.889832,657.501953 947.084229,656.791626 
	C946.780701,656.420471 946.574829,656.142456 946.574829,656.142456 
z"/>
<path fill="#A5702C" opacity="1.000000" stroke="none" 
	d="
M1002.277222,424.111877 
	C1002.562256,423.817383 1003.071655,423.534332 1003.863770,423.181915 
	C1003.598206,423.449493 1003.049866,423.786438 1002.277222,424.111877 
z"/>
<path fill="#A5702C" opacity="1.000000" stroke="none" 
	d="
M1000.571777,425.318542 
	C1000.700073,425.003143 1001.118652,424.646973 1001.802551,424.201477 
	C1001.665894,424.500671 1001.264038,424.889252 1000.571777,425.318542 
z"/>
<path fill="#936629" opacity="1.000000" stroke="none" 
	d="
M905.240234,469.234741 
	C905.525391,469.428589 905.473206,469.693329 905.123535,469.969604 
	C904.934631,469.781342 904.960144,469.556152 905.240234,469.234741 
z"/>
<path fill="#0E0E0E" opacity="1.000000" stroke="none" 
	d="
M850.996216,325.001892 
	C850.902649,324.903046 850.813110,324.801910 850.723511,324.700775 
	C850.802124,324.723206 850.880737,324.745636 850.983643,324.879669 
	C851.007935,324.991272 851.000183,324.999603 850.996216,325.001892 
z"/>
<path fill="#936629" opacity="1.000000" stroke="none" 
	d="
M946.510986,656.106323 
	C946.574829,656.142456 946.780701,656.420471 946.901245,656.544250 
	C946.780823,656.623413 946.591248,656.499878 946.394592,656.136047 
	C946.335999,655.974609 946.447205,656.070190 946.510986,656.106323 
z"/>
<path fill="#775322" opacity="1.000000" stroke="none" 
	d="
M1163.255615,641.931519 
	C1163.201050,641.740540 1163.417114,641.520081 1163.848145,641.192505 
	C1163.858643,641.332642 1163.679565,641.604858 1163.255615,641.931519 
z"/>
<path fill="#0E0E0E" opacity="1.000000" stroke="none" 
	d="
M770.001282,481.999084 
	C770.002563,481.998138 769.962769,481.947327 769.980469,481.974976 
	C769.998108,482.002655 770.000000,482.000000 770.001282,481.999084 
z"/>
<path fill="#936629" opacity="1.000000" stroke="none" 
	d="
M904.029419,472.533386 
	C904.052246,472.562958 904.013489,472.543121 904.031006,472.536438 
	C904.048462,472.529785 904.006531,472.503784 904.029419,472.533386 
z"/>
<path fill="#0E0E0E" opacity="1.000000" stroke="none" 
	d="
M825.494263,371.499634 
	C825.513489,371.493103 825.475037,371.506195 825.494263,371.499634 
z"/>
<path fill="#CE8B2B" opacity="1.000000" stroke="none" 
	d="
M935.200806,432.943359 
	C934.775146,432.229828 934.809875,431.534149 934.883057,430.117981 
	C934.913452,428.903137 934.905579,428.408813 934.897705,427.914490 
	C936.877869,425.523926 938.692566,422.968018 940.877625,420.782288 
	C943.995605,417.663300 944.581116,414.723175 942.397949,410.589813 
	C936.131836,398.726562 930.281067,386.643921 924.458862,374.260010 
	C927.336609,370.920349 923.614624,362.565216 918.932495,361.036499 
	C918.932495,361.036499 919.000000,361.006653 919.114380,360.687805 
	C919.547607,358.171417 919.866455,355.973938 920.185242,353.776428 
	C920.578247,353.602997 920.971191,353.429596 921.364197,353.256165 
	C923.625183,357.130859 926.171326,360.873077 928.053223,364.923889 
	C929.454468,367.940125 931.266907,369.222137 934.533813,369.047638 
	C938.996399,368.809235 943.496582,369.073395 947.932800,368.636932 
	C949.777405,368.455444 952.723328,367.335938 953.040527,366.097809 
	C953.899048,362.746674 953.651428,359.103699 953.692261,355.574768 
	C953.694458,355.385864 952.287109,354.937408 951.586914,355.023712 
	C947.427612,355.536133 948.156311,353.437347 949.129883,350.858704 
	C949.982971,348.598999 950.495972,346.210907 951.159302,343.879517 
	C955.450500,352.798340 959.606812,361.785461 964.073975,370.615326 
	C967.936035,378.249176 972.151184,385.704407 976.519409,393.812256 
	C991.227112,387.450867 1006.382935,382.237030 1023.214233,380.719788 
	C1024.253662,380.594910 1024.613159,380.453979 1024.972778,380.313049 
	C1028.713135,379.926270 1032.453369,379.539490 1036.991943,379.338409 
	C1044.187134,379.422241 1050.584229,379.320404 1056.981201,379.218567 
	C1060.377563,379.435699 1063.773804,379.652863 1067.851318,380.125427 
	C1068.902100,380.549103 1069.271973,380.717346 1069.641724,380.885620 
	C1070.883667,380.886230 1072.125732,380.886841 1074.014160,381.186646 
	C1075.293945,381.618500 1075.927490,381.751190 1076.560913,381.883850 
	C1079.467163,382.220093 1082.373535,382.556366 1085.914673,383.181885 
	C1086.918091,383.612671 1087.286499,383.754242 1087.655029,383.895813 
	C1089.232544,384.210541 1090.809937,384.525269 1092.902344,385.131104 
	C1093.700806,385.578339 1094.001709,385.686951 1094.319824,385.748016 
	C1094.319824,385.748016 1094.252563,385.670837 1094.385254,385.994873 
	C1097.589844,387.121124 1100.661865,387.923370 1103.733765,388.725586 
	C1103.733765,388.725586 1103.856812,388.618469 1104.131958,388.972900 
	C1105.984619,389.840515 1107.562012,390.353760 1109.139526,390.867004 
	C1109.139526,390.866974 1109.139160,390.901459 1109.146729,390.881531 
	C1111.844238,392.744110 1114.508057,394.664856 1117.228882,396.501556 
	C1124.080933,401.127167 1130.958740,405.714874 1137.913086,410.660034 
	C1138.000000,411.002258 1137.969116,411.031555 1137.969116,411.031555 
	C1135.936890,411.210327 1133.904663,411.389130 1131.872559,411.567902 
	C1131.782471,411.962891 1131.692383,412.357849 1131.602295,412.752838 
	C1132.587769,413.422943 1133.977051,413.879395 1134.469849,414.810303 
	C1135.339233,416.452911 1136.476562,418.614227 1136.044678,420.148010 
	C1135.138672,423.364594 1125.794556,425.189056 1123.067505,423.081085 
	C1120.845337,421.363434 1118.644775,419.591553 1116.273926,418.099243 
	C1113.134521,416.123260 1111.224609,417.250671 1110.311646,420.775665 
	C1109.898438,422.371216 1107.785278,425.043427 1107.474976,424.905579 
	C1105.259521,423.921143 1101.984009,423.422455 1103.115356,419.249512 
	C1103.485596,418.582062 1103.624634,418.294708 1103.763672,418.007355 
	C1103.509033,418.338226 1103.254517,418.669128 1103.000000,419.000000 
	C1099.663452,419.708740 1096.329468,420.429199 1092.988892,421.118835 
	C1092.034546,421.315857 1090.967896,421.759399 1090.111694,421.520386 
	C1080.382202,418.804565 1070.698730,415.923584 1060.963135,413.230957 
	C1059.168945,412.734741 1057.199341,412.799744 1055.306641,412.747223 
	C1049.992554,412.599823 1044.562622,411.790405 1039.386719,412.590637 
	C1030.943359,413.896057 1022.665405,416.271606 1014.317078,418.193176 
	C1012.261292,418.666382 1010.131592,418.930359 1008.161377,419.639435 
	C1004.198242,421.065674 999.926697,422.148193 996.514160,424.454956 
	C992.700867,427.032623 989.303528,429.373169 984.360046,429.134277 
	C981.140015,428.978607 977.875305,430.298553 974.597534,430.618774 
	C971.730835,430.898743 968.807861,430.555878 965.927307,430.748962 
	C955.834534,431.425507 945.749329,432.214783 935.200806,432.943359 
z"/>
<path fill="#B87E2B" opacity="1.000000" stroke="none" 
	d="
M902.155579,480.480530 
	C903.785461,477.101135 905.385742,474.143707 906.919739,471.152313 
	C908.753662,467.575897 910.530884,463.970459 912.598145,460.177856 
	C915.134521,460.313843 917.395447,460.798462 919.678528,460.950073 
	C923.044434,461.173615 925.511108,459.942230 926.048889,456.224365 
	C926.498535,453.115417 928.196594,452.209839 931.298950,452.707947 
	C936.132690,453.484039 941.054016,453.718811 945.883362,454.515381 
	C946.903076,454.683563 948.486816,456.333984 948.433228,457.217896 
	C948.250000,460.238525 949.704163,461.042175 952.633789,461.049866 
	C952.473572,462.627960 952.113281,464.272614 951.366943,465.717957 
	C947.431274,473.340027 943.398254,480.911804 939.031311,489.045868 
	C938.457275,490.385010 938.250977,491.179352 938.044678,491.973694 
	C936.563660,495.868835 935.082642,499.763977 933.049072,503.615967 
	C928.912109,497.041595 928.970825,497.096100 923.748474,502.723297 
	C920.761902,505.941254 917.468323,505.965515 913.433105,504.074554 
	C910.885132,502.880615 907.598450,503.032410 904.640930,503.017883 
	C902.374329,503.006805 900.104431,503.679810 897.835999,504.048645 
	C899.256226,496.328247 900.676453,488.607880 902.155579,480.480530 
M941.111816,457.818298 
	C941.013062,457.871552 940.914368,457.924835 940.815674,457.978119 
	C940.887817,458.060028 940.959961,458.141937 941.032043,458.223877 
	C941.095703,458.130829 941.159302,458.037781 941.111816,457.818298 
z"/>
<path fill="#B87E2B" opacity="1.000000" stroke="none" 
	d="
M979.055603,484.047668 
	C974.046021,473.645416 969.036499,463.243195 963.993530,452.472961 
	C965.605835,452.711456 967.236267,454.838318 968.772583,451.718689 
	C969.404358,450.435608 970.881653,449.568878 971.974365,448.512756 
	C972.677673,450.029205 973.394104,451.539825 974.077698,453.065094 
	C974.334961,453.639038 974.516174,454.247070 974.776306,454.960815 
	C975.413452,454.802307 976.126343,454.829407 976.264709,454.560608 
	C979.930603,447.443207 986.583923,448.411987 992.244812,449.821289 
	C996.446350,450.867188 998.929565,450.707153 1001.334351,447.028687 
	C1003.481018,458.948547 1011.653748,468.062897 1016.181824,478.844360 
	C1018.072021,483.344940 1020.013611,487.823975 1021.781616,492.929993 
	C1020.254761,495.151703 1018.878113,496.756195 1017.316345,498.576416 
	C1015.926147,496.225494 1015.078979,494.792877 1014.202332,493.310394 
	C1012.152222,495.464508 1010.671204,498.418854 1009.021057,498.516571 
	C1001.187744,498.980286 993.184143,499.436066 986.025269,495.031158 
	C985.531006,494.423401 985.036743,493.815643 984.197754,492.813232 
	C983.588867,491.955688 983.324768,491.492767 983.060669,491.029877 
	C982.413940,489.570923 981.767212,488.111969 980.925293,486.059509 
	C980.171936,484.993195 979.613770,484.520416 979.055603,484.047668 
z"/>
<path fill="#B87E2B" opacity="1.000000" stroke="none" 
	d="
M914.356079,456.957458 
	C914.765320,454.571991 915.575195,452.191589 916.351440,449.516113 
	C916.655701,449.147186 916.993530,449.073303 917.586060,448.960815 
	C918.565186,450.502960 920.308044,452.763031 919.801392,453.522614 
	C918.754333,455.092499 916.509094,455.863190 914.356079,456.957458 
z"/>
<path fill="#CE8B2B" opacity="1.000000" stroke="none" 
	d="
M1142.960815,415.038757 
	C1141.341187,413.932007 1139.721436,412.825256 1138.035400,411.375000 
	C1137.969116,411.031555 1138.000000,411.002258 1138.016113,410.987701 
	C1139.601318,412.110687 1141.170410,413.248230 1142.869629,414.693115 
	C1142.999756,415.000458 1142.960815,415.038788 1142.960815,415.038757 
z"/>
<path fill="#B87E2B" opacity="1.000000" stroke="none" 
	d="
M957.544678,456.041840 
	C956.508667,457.306244 955.119507,458.586029 953.438965,459.985168 
	C954.495605,458.755402 955.843567,457.406311 957.544678,456.041840 
z"/>
<path fill="#B87E2B" opacity="1.000000" stroke="none" 
	d="
M963.821777,451.821655 
	C963.164795,452.362122 962.427673,452.631836 961.406006,452.970642 
	C961.442139,452.107025 961.762817,451.174347 962.083496,450.241638 
	C962.636292,450.678101 963.189026,451.114502 963.821777,451.821655 
z"/>
<path fill="#CE8B2B" opacity="1.000000" stroke="none" 
	d="
M1142.979004,415.979065 
	C1142.979004,415.979065 1142.971436,415.508453 1142.966064,415.273621 
	C1142.960815,415.038788 1142.999756,415.000458 1143.019409,414.980652 
	C1143.629028,415.334442 1144.218994,415.708038 1144.808960,416.081665 
	C1144.354126,416.112762 1143.899414,416.143890 1143.220215,416.085785 
	C1142.995850,415.996552 1142.979004,415.979065 1142.979004,415.979065 
z"/>
<path fill="#CE8B2B" opacity="1.000000" stroke="none" 
	d="
M1143.001953,416.006012 
	C1142.622559,416.196869 1142.237061,416.378265 1141.851440,416.559631 
	C1142.103394,416.377167 1142.355469,416.194702 1142.793213,415.995667 
	C1142.979004,415.979065 1142.995850,415.996552 1143.001953,416.006012 
z"/>
<path fill="#E49B26" opacity="1.000000" stroke="none" 
	d="
M893.494995,330.449738 
	C893.296936,330.976990 893.098938,331.504272 892.629517,332.236755 
	C892.358093,332.441925 892.516174,332.562286 892.516113,332.562256 
	C890.968384,337.157257 889.732117,341.889069 887.789490,346.310577 
	C885.646545,351.188385 882.855469,355.781433 879.899536,360.902069 
	C879.027344,361.865173 878.602234,362.424683 878.177124,362.984253 
	C878.177185,362.984253 878.136719,363.109406 877.805420,363.241211 
	C877.116882,364.026154 876.759705,364.679291 876.402588,365.332458 
	C874.437500,370.414246 872.472351,375.496002 870.046692,380.762695 
	C865.327820,380.834106 866.566345,384.014862 866.360474,386.330017 
	C866.345703,386.514832 866.330933,386.699646 865.969482,386.859802 
	C862.549438,384.156097 860.537292,384.975677 857.833252,387.990601 
	C855.380432,390.725403 851.012512,394.456451 848.446777,393.829346 
	C842.516663,392.379883 837.270996,390.981598 830.925781,396.537567 
	C831.607056,392.428375 832.008789,390.005219 832.466064,387.247253 
	C831.222656,387.626648 830.122131,387.962463 828.730042,388.387238 
	C828.296143,386.616058 827.949524,385.200958 827.602844,383.785889 
	C827.602844,383.785889 827.568665,383.666290 827.988892,383.671326 
	C831.655090,379.931915 835.386780,376.480133 837.906555,372.298157 
	C838.905701,370.639801 837.214661,367.360535 836.748474,364.819275 
	C836.748474,364.819275 836.880005,364.851562 837.126831,364.749634 
	C837.825989,363.378906 838.278259,362.110168 838.730591,360.841400 
	C838.899841,360.309662 839.069092,359.777924 839.694824,358.832520 
	C840.392334,357.799561 840.633301,357.180237 840.874268,356.560913 
	C848.006592,341.760254 855.112305,326.946716 862.279480,312.162903 
	C868.362366,299.615540 874.516235,287.102570 881.064392,274.272034 
	C881.490051,273.969666 881.933533,273.930634 881.923828,274.334961 
	C879.899719,280.111633 877.731018,285.432709 875.923645,290.873749 
	C874.658630,294.682037 875.140259,299.293732 870.320190,301.211792 
	C869.771240,301.430267 869.140991,302.798492 869.343140,303.332916 
	C870.744995,307.037781 868.636108,309.103333 866.258118,311.389496 
	C865.348206,312.264221 865.249329,314.118286 865.046387,315.563354 
	C864.667908,318.257996 866.114441,321.742615 861.501404,322.388763 
	C860.967346,322.463531 860.712463,324.531219 860.326111,325.680878 
	C868.107300,327.195679 875.311462,328.598145 882.538635,330.005096 
	C882.158386,327.698639 881.715271,325.010956 881.414734,323.188263 
	C884.301147,323.188263 886.878906,323.973572 888.428406,323.044373 
	C893.537964,319.980347 895.162598,320.211792 897.987366,325.705170 
	C896.796387,327.187469 895.605408,328.669769 894.047363,330.178162 
	C893.680298,330.204285 893.492310,330.209717 893.492310,330.209717 
	C893.492310,330.209717 893.494995,330.449738 893.494995,330.449738 
z"/>
<path fill="#F2A21D" opacity="1.000000" stroke="none" 
	d="
M898.226868,325.635773 
	C895.162598,320.211792 893.537964,319.980347 888.428406,323.044373 
	C886.878906,323.973572 884.301147,323.188263 881.414734,323.188263 
	C881.715271,325.010956 882.158386,327.698639 882.538635,330.005096 
	C875.311462,328.598145 868.107300,327.195679 860.326111,325.680878 
	C860.712463,324.531219 860.967346,322.463531 861.501404,322.388763 
	C866.114441,321.742615 864.667908,318.257996 865.046387,315.563354 
	C865.249329,314.118286 865.348206,312.264221 866.258118,311.389496 
	C868.636108,309.103333 870.744995,307.037781 869.343140,303.332916 
	C869.140991,302.798492 869.771240,301.430267 870.320190,301.211792 
	C875.140259,299.293732 874.658630,294.682037 875.923645,290.873749 
	C877.731018,285.432709 879.899719,280.111633 881.891357,274.016632 
	C881.821960,273.085205 881.775208,272.876465 881.728516,272.667725 
	C881.939697,272.225739 882.150818,271.783752 882.721436,271.493286 
	C883.180298,271.813202 883.279785,271.981598 883.463623,272.284668 
	C883.696960,272.580658 883.870789,272.707916 884.286133,272.809448 
	C884.502747,272.817749 884.934753,272.854218 885.198669,272.808258 
	C885.940979,272.541443 886.419312,272.320557 887.316650,272.060699 
	C888.855957,272.022430 889.976318,272.023163 891.172546,272.216125 
	C891.798889,272.283173 892.349365,272.157990 893.373535,271.994965 
	C901.083740,272.028748 908.320190,272.100372 915.556702,272.171997 
	C915.556702,272.171997 915.775757,272.339508 915.782837,272.692261 
	C915.881348,273.336243 916.065552,273.545959 916.342529,273.674164 
	C916.342529,273.674164 916.375061,273.695312 916.308899,274.109436 
	C916.202148,275.325134 916.161621,276.126740 915.817383,277.034607 
	C914.787842,277.883850 914.061890,278.626831 913.335938,279.369781 
	C913.712708,279.746948 914.089417,280.124146 914.466187,280.501312 
	C915.345581,279.650665 916.224915,278.799988 917.458740,277.921539 
	C918.048096,277.862732 918.283081,277.831726 918.518066,277.800751 
	C918.748047,278.209717 918.978027,278.618652 919.111450,279.554199 
	C919.556458,280.812378 920.097961,281.544037 920.639526,282.275696 
	C920.639526,282.275665 920.580078,282.437927 920.655029,282.693970 
	C921.004517,283.280212 921.278931,283.610413 921.553345,283.940613 
	C921.780945,284.281647 922.008545,284.622681 922.216187,285.552216 
	C922.927979,287.306122 923.659729,288.471497 924.391418,289.636902 
	C924.391418,289.636902 924.447021,289.649872 924.448853,289.972595 
	C924.758972,290.786041 925.067322,291.276764 925.375671,291.767517 
	C925.375671,291.767517 925.226318,292.011627 925.221924,292.303040 
	C925.189819,293.707672 925.162048,294.820923 925.146362,296.298401 
	C924.942322,299.007904 924.726257,301.353149 924.474182,304.089264 
	C928.641541,304.869934 929.631653,307.871399 928.678040,312.078156 
	C928.437073,313.141388 928.680542,314.437622 929.061523,315.497345 
	C930.699646,320.052917 928.465393,321.094391 924.464355,321.026917 
	C917.976135,320.917511 911.483948,321.060699 904.994812,320.981812 
	C901.777527,320.942688 899.402405,321.800995 898.939087,325.407654 
	C898.939087,325.407654 898.466370,325.566376 898.226868,325.635773 
M920.525696,286.493591 
	C920.525696,286.493591 920.490051,286.504364 920.525696,286.493591 
z"/>
<path fill="#CE8B2B" opacity="1.000000" stroke="none" 
	d="
M827.334290,383.988708 
	C827.949524,385.200958 828.296143,386.616058 828.730042,388.387238 
	C830.122131,387.962463 831.222656,387.626648 832.466064,387.247253 
	C832.008789,390.005219 831.607056,392.428375 830.925781,396.537567 
	C837.270996,390.981598 842.516663,392.379883 848.446777,393.829346 
	C851.012512,394.456451 855.380432,390.725403 857.833252,387.990601 
	C860.537292,384.975677 862.549438,384.156097 865.897705,387.128540 
	C863.335876,393.701569 860.475708,399.970917 857.671875,406.265320 
	C856.268311,409.416199 854.967407,412.612854 853.527466,416.149292 
	C848.754517,424.823334 844.074219,433.136902 838.938721,441.628723 
	C836.901306,441.904480 835.318970,442.002014 833.779968,442.096863 
	C830.031738,439.180054 825.271912,439.313568 820.715332,439.530457 
	C815.845093,439.762207 814.068420,443.541290 812.982544,448.208862 
	C812.949219,440.077881 804.446838,446.307709 802.533813,441.258270 
	C805.012756,439.499725 808.342224,438.030121 806.066895,433.996857 
	C806.096008,433.969513 805.973572,433.959412 805.474976,433.932190 
	C804.311401,433.870880 803.646362,433.836792 802.981323,433.802704 
	C808.293640,422.744537 813.584290,411.675842 818.927429,400.632568 
	C821.590637,395.128235 824.349976,389.670410 827.334290,383.988708 
z"/>
<path fill="#E49B26" opacity="1.000000" stroke="none" 
	d="
M899.169678,325.707520 
	C899.402405,321.800995 901.777527,320.942688 904.994812,320.981812 
	C911.483948,321.060699 917.976135,320.917511 924.464355,321.026917 
	C928.465393,321.094391 930.699646,320.052917 929.061523,315.497345 
	C928.680542,314.437622 928.437073,313.141388 928.678040,312.078156 
	C929.631653,307.871399 928.641541,304.869934 924.474182,304.089264 
	C924.726257,301.353149 924.942322,299.007904 925.426147,296.435303 
	C926.487915,296.474091 927.281860,296.740234 928.075867,297.006378 
	C928.075867,297.006378 928.278748,297.121643 928.236572,297.668030 
	C930.198364,302.091858 932.202332,305.969360 934.206299,309.846863 
	C934.206360,309.846832 934.110291,309.876770 934.187378,310.139221 
	C934.591248,310.900757 934.917969,311.399872 935.244751,311.898987 
	C935.244751,311.898987 935.179321,311.878113 935.125671,312.145874 
	C934.600037,314.276123 933.894165,316.281738 937.173767,315.849152 
	C937.173767,315.849152 937.093750,315.995483 937.171265,316.213593 
	C937.588684,316.908966 937.928650,317.386230 938.268616,317.863495 
	C938.527527,318.316986 938.786377,318.770477 939.129944,319.792725 
	C939.562561,320.863129 939.910461,321.364746 940.258362,321.866394 
	C940.258362,321.866394 940.190186,321.853760 940.162354,322.258545 
	C940.594116,325.199127 940.623291,327.919006 941.611145,330.228851 
	C943.211304,333.970337 945.300110,337.531494 947.479248,340.981476 
	C948.264771,342.225098 949.905457,342.928619 951.155823,343.878632 
	C951.155823,343.878632 951.136353,343.923523 951.147827,343.901520 
	C950.495972,346.210907 949.982971,348.598999 949.129883,350.858704 
	C948.156311,353.437347 947.427612,355.536133 951.586914,355.023712 
	C952.287109,354.937408 953.694458,355.385864 953.692261,355.574768 
	C953.651428,359.103699 953.899048,362.746674 953.040527,366.097809 
	C952.723328,367.335938 949.777405,368.455444 947.932800,368.636932 
	C943.496582,369.073395 938.996399,368.809235 934.533813,369.047638 
	C931.266907,369.222137 929.454468,367.940125 928.053223,364.923889 
	C926.171326,360.873077 923.625183,357.130859 921.364197,353.256165 
	C920.971191,353.429596 920.578247,353.602997 920.185242,353.776428 
	C919.866455,355.973938 919.547607,358.171417 919.082031,360.707336 
	C916.772278,356.743408 914.609375,352.441040 912.536316,347.356781 
	C911.379272,345.437561 910.132446,344.300232 908.885620,343.162903 
	C905.723877,337.444397 902.562073,331.725922 899.169678,325.707520 
M911.454956,339.682495 
	C911.731140,339.529053 912.007324,339.375610 912.283508,339.222168 
	C912.075195,339.007446 911.866821,338.792725 911.658447,338.578003 
	C911.548035,338.846741 911.437622,339.115479 911.454956,339.682495 
z"/>
<path fill="#C0832D" opacity="1.000000" stroke="none" 
	d="
M806.037842,434.024200 
	C808.342224,438.030121 805.012756,439.499725 802.533813,441.258270 
	C804.446838,446.307709 812.949219,440.077881 812.982544,448.208862 
	C814.068420,443.541290 815.845093,439.762207 820.715332,439.530457 
	C825.271912,439.313568 830.031738,439.180054 833.779968,442.096863 
	C835.318970,442.002014 836.901306,441.904480 838.769165,441.937561 
	C834.831238,450.761383 830.673340,459.487732 826.328125,468.119690 
	C825.469360,469.825592 823.889648,471.168549 822.136963,472.968689 
	C821.437988,474.185394 821.244507,475.112244 821.050964,476.039124 
	C821.050964,476.039124 821.038513,476.522095 820.699890,476.857544 
	C816.003479,478.722839 818.182739,482.218750 818.010986,485.007599 
	C818.010986,485.007599 818.004639,485.003510 817.666504,484.918976 
	C812.854553,484.116364 808.398376,483.235229 803.899475,482.749390 
	C801.671021,482.508759 799.334595,483.305603 797.098328,483.092987 
	C791.348877,482.546295 785.628174,481.697998 779.895935,480.970276 
	C787.422913,465.372833 794.949829,449.775391 802.729004,433.990326 
	C803.646362,433.836792 804.311401,433.870880 805.490112,433.949341 
	C806.003845,433.993713 806.037842,434.024200 806.037842,434.024200 
z"/>
<path fill="#B87E2B" opacity="1.000000" stroke="none" 
	d="
M779.652466,481.130371 
	C785.628174,481.697998 791.348877,482.546295 797.098328,483.092987 
	C799.334595,483.305603 801.671021,482.508759 803.899475,482.749390 
	C808.398376,483.235229 812.854553,484.116364 817.671387,484.925446 
	C812.062622,492.644592 809.518982,501.962524 805.280151,510.436279 
	C801.107605,518.777710 793.537537,520.927368 784.687500,518.063721 
	C781.325562,516.975830 777.512817,517.212708 773.896484,516.994324 
	C767.023804,516.579346 765.629089,514.085510 768.816406,508.151306 
	C772.431396,501.421112 775.944214,494.631470 779.278259,487.759430 
	C779.826111,486.630219 779.227112,484.944550 778.956909,483.202698 
	C778.973389,482.356384 779.191162,481.823425 779.652466,481.130371 
z"/>
<path fill="#020202" opacity="1.000000" stroke="none" 
	d="
M1085.419922,375.045349 
	C1086.692139,375.869019 1087.548462,376.661255 1088.404663,377.453491 
	C1087.581543,378.183868 1086.752075,379.547943 1085.936523,379.539825 
	C1081.325317,379.494080 1076.445190,381.472961 1072.249878,377.490936 
	C1071.225586,376.518707 1068.903564,376.721405 1067.176636,376.712616 
	C1055.454468,376.652985 1043.732056,376.681458 1032.009644,376.681458 
	C1031.964111,376.228912 1031.918457,375.776398 1031.872803,375.323853 
	C1036.056274,375.207031 1040.239014,375.041168 1044.423218,374.986511 
	C1049.072144,374.925781 1053.730591,375.138428 1058.369507,374.913513 
	C1062.834351,374.697083 1067.280151,373.721252 1071.733154,373.728668 
	C1076.157471,373.735992 1080.580444,374.552368 1085.419922,375.045349 
z"/>
<path fill="#CE8B2B" opacity="1.000000" stroke="none" 
	d="
M836.471436,365.033081 
	C837.214661,367.360535 838.905701,370.639801 837.906555,372.298157 
	C835.386780,376.480133 831.655090,379.931915 828.048340,383.652954 
	C830.523132,377.501953 833.358765,371.374420 836.471436,365.033081 
z"/>
<path fill="#CE8B2B" opacity="1.000000" stroke="none" 
	d="
M951.121216,343.520935 
	C949.905457,342.928619 948.264771,342.225098 947.479248,340.981476 
	C945.300110,337.531494 943.211304,333.970337 941.611145,330.228851 
	C940.623291,327.919006 940.594116,325.199127 940.178406,322.227844 
	C943.843750,328.915985 947.465210,336.039642 951.121216,343.520935 
z"/>
<path fill="#CE8B2B" opacity="1.000000" stroke="none" 
	d="
M884.934753,272.854218 
	C884.934753,272.854218 884.502747,272.817749 884.176880,272.691284 
	C883.706116,272.412476 883.548828,272.274200 883.379211,272.149994 
	C883.279785,271.981598 883.180298,271.813202 882.944580,271.385101 
	C882.808228,271.125366 882.977661,270.678619 883.401978,270.521240 
	C884.518982,270.295990 885.211609,270.228119 885.904236,270.160278 
	C893.962524,270.295532 902.021912,270.389801 910.078308,270.598480 
	C911.818359,270.643524 913.547729,271.100555 915.419312,271.769897 
	C908.320190,272.100372 901.083740,272.028748 893.074402,271.966858 
	C891.899963,271.992340 891.498352,272.008118 891.096741,272.023895 
	C889.976318,272.023163 888.855957,272.022430 887.054565,272.092224 
	C885.894043,272.393280 885.414368,272.623749 884.934753,272.854218 
z"/>
<path fill="#CE8B2B" opacity="1.000000" stroke="none" 
	d="
M934.157043,309.492004 
	C932.202332,305.969360 930.198364,302.091858 928.229858,297.784485 
	C930.212891,301.282104 932.160339,305.209625 934.157043,309.492004 
z"/>
<path fill="#C0832D" opacity="1.000000" stroke="none" 
	d="
M1056.529541,379.090271 
	C1050.584229,379.320404 1044.187134,379.422241 1037.413940,379.368103 
	C1043.384521,379.128754 1049.731201,379.045380 1056.529541,379.090271 
z"/>
<path fill="#C0832D" opacity="1.000000" stroke="none" 
	d="
M1103.429199,388.479126 
	C1100.661865,387.923370 1097.589844,387.121124 1094.424316,385.961670 
	C1097.261841,386.480560 1100.193237,387.356628 1103.429199,388.479126 
z"/>
<path fill="#020202" opacity="1.000000" stroke="none" 
	d="
M889.193848,268.273865 
	C890.556702,267.879028 891.818298,267.748901 893.079834,267.618744 
	C893.029907,268.283020 892.979919,268.947327 892.929932,269.611603 
	C891.650818,269.253906 890.371704,268.896210 889.193848,268.273865 
z"/>
<path fill="#CE8B2B" opacity="1.000000" stroke="none" 
	d="
M928.054932,296.670654 
	C927.281860,296.740234 926.487915,296.474091 925.414062,296.071045 
	C925.162048,294.820923 925.189819,293.707672 925.305786,292.184753 
	C926.273926,293.295013 927.153931,294.815002 928.054932,296.670654 
z"/>
<path fill="#CE8B2B" opacity="1.000000" stroke="none" 
	d="
M937.154663,315.520508 
	C933.894165,316.281738 934.600037,314.276123 935.144287,312.117035 
	C935.856262,312.944244 936.495911,314.068054 937.154663,315.520508 
z"/>
<path fill="#CE8B2B" opacity="1.000000" stroke="none" 
	d="
M838.462280,361.026978 
	C838.278259,362.110168 837.825989,363.378906 837.067261,364.717255 
	C837.238586,363.595428 837.716248,362.403992 838.462280,361.026978 
z"/>
<path fill="#020202" opacity="1.000000" stroke="none" 
	d="
M885.992676,269.927460 
	C885.211609,270.228119 884.518982,270.295990 883.483704,270.296753 
	C884.055176,269.499359 884.969238,268.769073 885.883301,268.038818 
	C885.949158,268.590759 886.015137,269.142731 885.992676,269.927460 
z"/>
<path fill="#C0832D" opacity="1.000000" stroke="none" 
	d="
M1108.902710,390.602448 
	C1107.562012,390.353760 1105.984619,389.840515 1104.186279,389.033752 
	C1105.532227,389.272766 1107.099121,389.805328 1108.902710,390.602448 
z"/>
<path fill="#CE8B2B" opacity="1.000000" stroke="none" 
	d="
M924.353271,289.296051 
	C923.659729,288.471497 922.927979,287.306122 922.240723,285.761322 
	C922.961853,286.573029 923.638489,287.764130 924.353271,289.296051 
z"/>
<path fill="#E49B26" opacity="1.000000" stroke="none" 
	d="
M920.621582,281.953125 
	C920.097961,281.544037 919.556458,280.812378 919.125427,279.792175 
	C919.691895,280.212585 920.147766,280.921570 920.621582,281.953125 
z"/>
<path fill="#CE8B2B" opacity="1.000000" stroke="none" 
	d="
M918.447998,277.470276 
	C918.283081,277.831726 918.048096,277.862732 917.301636,277.744446 
	C916.575928,277.363983 916.352905,277.141693 916.121033,276.928314 
	C916.161621,276.126740 916.202148,275.325134 916.311646,274.128662 
	C917.046387,274.869080 917.712158,276.004425 918.447998,277.470276 
z"/>
<path fill="#CE8B2B" opacity="1.000000" stroke="none" 
	d="
M938.246765,317.560944 
	C937.928650,317.386230 937.588684,316.908966 937.200439,316.136230 
	C937.509705,316.313324 937.867310,316.785858 938.246765,317.560944 
z"/>
<path fill="#C0832D" opacity="1.000000" stroke="none" 
	d="
M1076.354736,381.597778 
	C1075.927490,381.751190 1075.293945,381.618500 1074.373657,381.338531 
	C1074.774048,381.231415 1075.461182,381.271576 1076.354736,381.597778 
z"/>
<path fill="#CE8B2B" opacity="1.000000" stroke="none" 
	d="
M940.218994,321.554932 
	C939.910461,321.364746 939.562561,320.863129 939.161255,320.056396 
	C939.465088,320.248718 939.822388,320.746124 940.218994,321.554932 
z"/>
<path fill="#CE8B2B" opacity="1.000000" stroke="none" 
	d="
M840.604736,356.771790 
	C840.633301,357.180237 840.392334,357.799561 839.907104,358.646729 
	C839.887024,358.243958 840.111084,357.613281 840.604736,356.771790 
z"/>
<path fill="#CE8B2B" opacity="1.000000" stroke="none" 
	d="
M935.214966,311.593079 
	C934.917969,311.399872 934.591248,310.900757 934.221313,310.102081 
	C934.513855,310.297394 934.849548,310.792267 935.214966,311.593079 
z"/>
<path fill="#CE8B2B" opacity="1.000000" stroke="none" 
	d="
M925.375732,291.466736 
	C925.067322,291.276764 924.758972,290.786041 924.444824,290.000793 
	C924.751343,290.192871 925.063599,290.679413 925.375732,291.466736 
z"/>
<path fill="#E49B26" opacity="1.000000" stroke="none" 
	d="
M921.481323,283.607056 
	C921.278931,283.610413 921.004517,283.280212 920.574158,282.663635 
	C920.748596,282.675995 921.078979,282.974731 921.481323,283.607056 
z"/>
<path fill="#CE8B2B" opacity="1.000000" stroke="none" 
	d="
M916.345581,273.452576 
	C916.065552,273.545959 915.881348,273.336243 915.771057,272.829620 
	C916.066345,272.708374 916.265137,272.913940 916.345581,273.452576 
z"/>
<path fill="#CE8B2B" opacity="1.000000" stroke="none" 
	d="
M881.502441,272.815552 
	C881.775208,272.876465 881.821960,273.085205 881.901123,273.612305 
	C881.933533,273.930634 881.490051,273.969666 881.267822,273.981018 
	C881.122559,273.649414 881.199402,273.306396 881.502441,272.815552 
z"/>
<path fill="#020202" opacity="1.000000" stroke="none" 
	d="
M944.003723,320.005310 
	C944.007446,320.010620 943.928101,320.031860 943.958618,320.012268 
	C943.989075,319.992645 944.000000,320.000000 944.003723,320.005310 
z"/>
<path fill="#020202" opacity="1.000000" stroke="none" 
	d="
M949.498535,335.504333 
	C949.492249,335.484741 949.504761,335.523926 949.498535,335.504333 
z"/>
<path fill="#C0832D" opacity="1.000000" stroke="none" 
	d="
M1024.659912,380.255920 
	C1024.613159,380.453979 1024.253662,380.594910 1023.610229,380.799561 
	C1023.666565,380.641785 1024.006714,380.420288 1024.659912,380.255920 
z"/>
<path fill="#C0832D" opacity="1.000000" stroke="none" 
	d="
M1069.480469,380.586304 
	C1069.271973,380.717346 1068.902100,380.549103 1068.267090,380.228577 
	C1068.440918,380.146545 1068.880127,380.216797 1069.480469,380.586304 
z"/>
<path fill="#C0832D" opacity="1.000000" stroke="none" 
	d="
M1087.468750,383.634033 
	C1087.286499,383.754242 1086.918091,383.612671 1086.295898,383.320007 
	C1086.455566,383.236725 1086.869019,383.304504 1087.468750,383.634033 
z"/>
<path fill="#C0832D" opacity="1.000000" stroke="none" 
	d="
M1094.172119,385.532349 
	C1094.001709,385.686951 1093.700806,385.578339 1093.218018,385.289185 
	C1093.354126,385.209717 1093.689331,385.263214 1094.172119,385.532349 
z"/>
<path fill="#020202" opacity="1.000000" stroke="none" 
	d="
M978.004517,388.006866 
	C978.009033,388.013275 977.925842,388.032166 977.956787,388.011719 
	C977.987793,387.991241 978.000000,388.000458 978.004517,388.006866 
z"/>
<path fill="#A9722B" opacity="1.000000" stroke="none" 
	d="
M897.669617,504.382874 
	C900.104431,503.679810 902.374329,503.006805 904.640930,503.017883 
	C907.598450,503.032410 910.885132,502.880615 913.433105,504.074554 
	C917.468323,505.965515 920.761902,505.941254 923.748474,502.723297 
	C928.970825,497.096100 928.912109,497.041595 932.755005,503.810638 
	C932.791016,510.280853 932.495728,516.511719 932.363464,522.745972 
	C932.177490,531.512329 932.112366,540.281250 931.994019,549.784302 
	C931.991394,550.698303 931.990295,550.877014 931.989197,551.055786 
	C931.988892,551.478088 931.988647,551.900330 931.988281,552.638367 
	C931.370972,555.064697 930.753845,557.175293 929.932312,559.984741 
	C924.051208,557.239502 917.358154,563.024719 910.828552,558.506897 
	C909.256287,557.419067 906.285645,558.107971 903.996887,558.348572 
	C898.458984,558.930603 896.351196,557.900208 896.024719,552.303162 
	C895.397217,541.544983 895.215820,530.741577 895.379272,519.964966 
	C895.456543,514.872742 896.757019,509.799133 897.669617,504.382874 
z"/>
<path fill="#A9722B" opacity="1.000000" stroke="none" 
	d="
M986.034363,495.414368 
	C993.184143,499.436066 1001.187744,498.980286 1009.021057,498.516571 
	C1010.671204,498.418854 1012.152222,495.464508 1014.202332,493.310394 
	C1015.078979,494.792877 1015.926147,496.225494 1017.316345,498.576416 
	C1018.878113,496.756195 1020.254761,495.151703 1021.826904,493.285034 
	C1026.441895,501.423157 1031.034912,509.738892 1035.187744,518.268982 
	C1036.663574,521.300415 1036.614014,524.609375 1031.907104,525.286987 
	C1031.299805,525.374329 1030.516235,525.755432 1030.218384,526.245850 
	C1025.973389,533.235352 1020.044067,533.648621 1012.934021,531.297607 
	C1010.857483,530.611023 1008.209167,531.653809 1005.140503,531.975403 
	C1006.304993,530.374268 1007.110901,529.266113 1008.601746,527.216187 
	C1002.830994,530.005920 1000.852905,526.514160 999.124939,522.999634 
	C994.685913,513.970886 990.394104,504.869781 986.034363,495.414368 
z"/>
<path fill="#A9722B" opacity="1.000000" stroke="none" 
	d="
M979.165466,484.306213 
	C979.613770,484.520416 980.171936,484.993195 980.836426,485.728027 
	C980.386902,485.515015 979.831116,485.039917 979.165466,484.306213 
z"/>
<path fill="#A9722B" opacity="1.000000" stroke="none" 
	d="
M938.205017,491.709473 
	C938.250977,491.179352 938.457275,490.385010 938.836426,489.334534 
	C938.794678,489.867371 938.580017,490.656311 938.205017,491.709473 
z"/>
<path fill="#A9722B" opacity="1.000000" stroke="none" 
	d="
M983.132935,491.288452 
	C983.324768,491.492767 983.588867,491.955688 983.931519,492.673950 
	C983.741760,492.468567 983.473450,492.007812 983.132935,491.288452 
z"/>
<path fill="#A9722B" opacity="1.000000" stroke="none" 
	d="
M1034.500977,528.494690 
	C1034.506836,528.512756 1034.494995,528.476624 1034.500977,528.494690 
z"/>
<path fill="#936629" opacity="1.000000" stroke="none" 
	d="
M932.048584,550.926147 
	C931.990295,550.877014 931.991394,550.698303 931.994995,550.251221 
	C932.148315,550.241150 932.185181,550.512390 932.048584,550.926147 
z"/>
<path fill="#845B25" opacity="1.000000" stroke="none" 
	d="
M920.001221,618.998901 
	C917.526672,618.923828 915.389465,618.561340 917.117859,613.952148 
	C918.339844,615.854248 919.130676,617.085144 919.959534,618.659241 
	C919.997559,619.002441 920.000000,619.000000 920.001221,618.998901 
z"/>
<path fill="#B87E2B" opacity="1.000000" stroke="none" 
	d="
M818.209106,484.720093 
	C818.182739,482.218750 816.003479,478.722839 820.686279,477.098755 
	C820.143250,479.480499 819.275208,481.956543 818.209106,484.720093 
z"/>
<path fill="#B87E2B" opacity="1.000000" stroke="none" 
	d="
M766.031494,517.790405 
	C766.060730,517.791870 766.002319,517.788879 766.031494,517.790405 
z"/>
<path fill="#B87E2B" opacity="1.000000" stroke="none" 
	d="
M821.213135,475.765503 
	C821.244507,475.112244 821.437988,474.185394 821.862366,473.166138 
	C821.853943,473.879791 821.614685,474.685852 821.213135,475.765503 
z"/>
<path fill="#775322" opacity="1.000000" stroke="none" 
	d="
M1135.899902,640.169556 
	C1135.383545,640.106079 1135.011230,639.909668 1134.638916,639.713257 
	C1134.926270,639.441711 1135.213501,639.170105 1135.500854,638.898560 
	C1135.681885,639.277954 1135.862915,639.657288 1135.899902,640.169556 
z"/>
<path fill="#E49B26" opacity="1.000000" stroke="none" 
	d="
M918.904541,361.414185 
	C923.614624,362.565216 927.336609,370.920349 924.330688,373.934082 
	C922.299377,369.927704 920.587952,365.859772 918.904541,361.414185 
z"/>
<path fill="#CE8B2B" opacity="1.000000" stroke="none" 
	d="
M866.668579,386.197449 
	C866.566345,384.014862 865.327820,380.834106 869.881226,381.081085 
	C869.109741,382.831329 868.043152,384.448090 866.668579,386.197449 
z"/>
<path fill="#CE8B2B" opacity="1.000000" stroke="none" 
	d="
M908.984863,343.463226 
	C910.132446,344.300232 911.379272,345.437561 912.539856,346.959778 
	C911.330444,346.151001 910.207275,344.957306 908.984863,343.463226 
z"/>
<path fill="#CE8B2B" opacity="1.000000" stroke="none" 
	d="
M876.636597,365.180725 
	C876.759705,364.679291 877.116882,364.026154 877.750122,363.276855 
	C877.640991,363.796783 877.255798,364.412872 876.636597,365.180725 
z"/>
<path fill="#CE8B2B" opacity="1.000000" stroke="none" 
	d="
M878.424927,362.879517 
	C878.602234,362.424683 879.027344,361.865173 879.709473,361.211761 
	C879.535217,361.670197 879.104004,362.222534 878.424927,362.879517 
z"/>
<path fill="#C0832D" opacity="1.000000" stroke="none" 
	d="
M934.728699,428.052368 
	C934.905579,428.408813 934.913452,428.903137 934.895081,429.769073 
	C934.765747,429.490540 934.662720,428.840393 934.728699,428.052368 
z"/>
<path fill="#CE8B2B" opacity="1.000000" stroke="none" 
	d="
M893.551636,330.438904 
	C893.494995,330.449738 893.492310,330.209717 893.492310,330.209717 
	C893.492310,330.209717 893.680298,330.204285 893.697632,330.294312 
	C893.714966,330.384338 893.608215,330.428040 893.551636,330.438904 
z"/>
<path fill="#CE8B2B" opacity="1.000000" stroke="none" 
	d="
M892.517090,332.534973 
	C892.516174,332.562286 892.358093,332.441925 892.437500,332.447449 
	C892.516846,332.452942 892.517944,332.507629 892.517090,332.534973 
z"/>
<path fill="#020202" opacity="1.000000" stroke="none" 
	d="
M1134.240234,460.903412 
	C1134.418701,460.475220 1134.842285,459.944733 1135.507324,459.333984 
	C1135.327759,459.769562 1134.906494,460.285339 1134.240234,460.903412 
z"/>
<path fill="#C0832D" opacity="1.000000" stroke="none" 
	d="
M1103.173340,418.934723 
	C1103.254517,418.669128 1103.509033,418.338226 1103.763672,418.007355 
	C1103.624634,418.294708 1103.485596,418.582062 1103.173340,418.934723 
z"/>
<path fill="#C0832D" opacity="1.000000" stroke="none" 
	d="
M941.167358,457.881531 
	C941.159302,458.037781 941.095703,458.130829 941.032043,458.223846 
	C940.959961,458.141937 940.887817,458.060028 940.815674,457.978119 
	C940.914368,457.924835 941.013062,457.871552 941.167358,457.881531 
z"/>
<path fill="#E49B26" opacity="1.000000" stroke="none" 
	d="
M915.817383,277.034607 
	C916.352905,277.141693 916.575928,277.363983 916.947205,277.772247 
	C916.224915,278.799988 915.345581,279.650665 914.466187,280.501312 
	C914.089417,280.124146 913.712708,279.746948 913.335938,279.369781 
	C914.061890,278.626831 914.787842,277.883850 915.817383,277.034607 
z"/>
<path fill="#E49B26" opacity="1.000000" stroke="none" 
	d="
M891.172546,272.216125 
	C891.498352,272.008118 891.899963,271.992340 892.600708,272.004700 
	C892.349365,272.157990 891.798889,272.283173 891.172546,272.216125 
z"/>
<path fill="#E49B26" opacity="1.000000" stroke="none" 
	d="
M885.198669,272.808258 
	C885.414368,272.623749 885.894043,272.393280 886.635681,272.131226 
	C886.419312,272.320557 885.940979,272.541443 885.198669,272.808258 
z"/>
<path fill="#E49B26" opacity="1.000000" stroke="none" 
	d="
M883.463623,272.284668 
	C883.548828,272.274200 883.706116,272.412476 883.960327,272.682983 
	C883.870789,272.707916 883.696960,272.580658 883.463623,272.284668 
z"/>
<path fill="#E49B26" opacity="1.000000" stroke="none" 
	d="
M920.507874,286.498962 
	C920.490051,286.504364 920.525696,286.493591 920.507874,286.498962 
z"/>
<path fill="#C0832D" opacity="1.000000" stroke="none" 
	d="
M805.988708,433.976562 
	C805.973572,433.959412 806.096008,433.969513 806.066895,433.996857 
	C806.037842,434.024200 806.003845,433.993713 805.988708,433.976562 
z"/>
<path fill="#CE8B2B" opacity="1.000000" stroke="none" 
	d="
M911.391052,339.533325 
	C911.437622,339.115479 911.548035,338.846741 911.658447,338.578003 
	C911.866821,338.792725 912.075195,339.007446 912.283508,339.222168 
	C912.007324,339.375610 911.731140,339.529053 911.391052,339.533325 
z"/>
</svg>